<svg width="48" viewBox="0 0 48 48" fill="none" xmlns="http://www.w3.org/2000/svg" class="ms-ds-0 me-ds-0 mt-ds-0 mb-ds-0"><rect width="48" height="48" rx="8" fill="#7132F5"></rect><rect width="48" height="48" rx="8" fill="url(#paint0_linear_48262_1167)" fill-opacity="0.64"></rect><rect width="48" height="48" rx="8" fill="url(#paint1_linear_48262_1167)" fill-opacity="0.4"></rect><path fill-rule="evenodd" clip-rule="evenodd" d="M10.5938 25.9234V31.7284C10.5938 32.7974 11.4487 33.6624 12.5 33.6624C13.5524 33.6624 14.4113 32.7974 14.4113 31.7284V25.9234C14.4113 24.8529 15.2618 23.9864 16.3187 23.9864C17.3718 23.9864 18.226 24.8529 18.226 25.9234V31.7284C18.226 32.7974 19.0809 33.6624 20.1333 33.6624C21.1894 33.6624 22.044 32.7974 22.044 31.7284V25.9234C22.044 24.8529 22.8981 23.9864 23.9509 23.9864C25.0081 23.9864 25.863 24.8529 25.863 25.9234V31.7284C25.863 32.7974 26.7176 33.6624 27.7689 33.6624C28.8213 33.6624 29.6762 32.7974 29.6762 31.7284V25.9234C29.6762 24.8529 30.5307 23.9864 31.5876 23.9864C32.6404 23.9864 33.4949 24.8529 33.4949 25.9234V31.7284C33.4949 32.7974 34.3498 33.6624 35.4052 33.6624C36.458 33.6624 37.3125 32.7974 37.3125 31.7284V25.9234C37.3125 18.4416 31.3299 12.375 23.9509 12.375C16.5723 12.375 10.5938 18.4416 10.5938 25.9234Z" fill="white"></path><defs><linearGradient id="paint0_linear_48262_1167" x1="20.3766" y1="39.4091" x2="0" y2="0" gradientUnits="userSpaceOnUse"><stop stop-color="#F4AAFF" stop-opacity="0"></stop><stop offset="1" stop-color="#F000FB" stop-opacity="0.4"></stop></linearGradient><linearGradient id="paint1_linear_48262_1167" x1="17.513" y1="27.1753" x2="-2.86527e-07" y2="-2.2987" gradientUnits="userSpaceOnUse"><stop stop-color="#F7D2FE" stop-opacity="0"></stop><stop offset="1" stop-color="#F7D2FE"></stop></linearGradient></defs></svg>