<svg width="96" height="96" viewBox="0 0 96 96" fill="none" xmlns="http://www.w3.org/2000/svg">
<path d="M53.608 13.5208C53.6792 12.1354 54.6438 11.0924 55.8852 11.0685C56.502 11.0526 57.1583 11.0605 57.7355 11.0924C58.3127 11.1322 58.9769 11.2118 59.5937 11.3074C60.843 11.4985 61.9342 12.653 62.1556 14.0304C62.2663 14.7311 62.3691 15.4636 62.4165 16.0767C62.464 16.7614 62.4719 17.5895 62.456 18.3379C62.4323 19.588 61.5942 20.5434 60.4081 20.6549C59.6886 20.7266 58.8899 20.7744 58.2337 20.7505C57.5774 20.7186 56.7708 20.5912 56.0434 20.4559C54.8415 20.2329 53.9164 19.1819 53.7661 17.9C53.6792 17.1277 53.6001 16.2837 53.5764 15.591C53.5606 14.9699 53.5764 14.2215 53.6159 13.5208H53.608Z" fill="#387F5C"/>
<path d="M63.4766 14.1502C63.4766 12.7966 64.3701 11.8411 65.6036 11.8968C66.2125 11.9207 66.8687 11.9685 67.446 12.0481C68.0232 12.1198 68.6874 12.2472 69.3041 12.3746C70.5614 12.6453 71.7079 13.8237 72.0084 15.1613C72.1586 15.8381 72.3009 16.5547 72.38 17.1519C72.467 17.8127 72.5144 18.6089 72.5302 19.3335C72.5618 20.5357 71.7711 21.4116 70.593 21.4673C69.8813 21.4992 69.0827 21.5151 68.4264 21.4514C67.7701 21.3877 66.9557 21.2285 66.2283 21.0613C65.0185 20.7906 64.0459 19.7157 63.8403 18.4497C63.7138 17.6933 63.5952 16.8573 63.5398 16.1725C63.4924 15.5594 63.4766 14.8349 63.4766 14.1502Z" fill="#387F5C"/>
<path d="M73.3439 15.3522C73.2648 14.0544 74.1029 13.1945 75.3285 13.3378C75.9374 13.4095 76.5937 13.4971 77.163 13.6085C77.7402 13.72 78.4044 13.8872 79.0291 14.0544C80.2863 14.3968 81.504 15.5911 81.8756 16.865C82.0654 17.51 82.2473 18.1947 82.3501 18.7521C82.4687 19.3731 82.5556 20.1295 82.611 20.8063C82.7059 21.9369 81.9547 22.7252 80.7923 22.7172C80.0807 22.7172 79.29 22.6854 78.6337 22.5978C77.9774 22.5102 77.163 22.3191 76.4197 22.12C75.202 21.8016 74.1899 20.7187 73.9211 19.4925C73.7629 18.76 73.5969 17.9479 73.5099 17.295C73.4308 16.7058 73.3755 16.0052 73.3359 15.3443L73.3439 15.3522Z" fill="#387F5C"/>
<path d="M53.7365 78.0537C53.8868 76.6603 54.9621 75.5615 56.2747 75.4182C56.9231 75.3466 57.6189 75.2829 58.2198 75.259C58.8208 75.2351 59.5166 75.2351 60.1571 75.243C61.4618 75.2669 62.4422 76.2542 62.466 77.6157C62.4739 78.3005 62.466 79.033 62.4264 79.6461C62.379 80.3308 62.2604 81.1669 62.1339 81.9233C61.9204 83.1892 60.9794 84.28 59.825 84.5508C59.1213 84.718 58.3543 84.8613 57.7296 84.9011C57.105 84.9409 56.3459 84.9011 55.6579 84.8215C54.5272 84.6941 53.7049 83.6988 53.6337 82.4249C53.5942 81.6605 53.5626 80.8165 53.5784 80.1238C53.5942 79.5028 53.6654 78.7544 53.7365 78.0457V78.0537Z" fill="#387F5C"/>
<path d="M74.6094 25.5344C74.6015 24.2286 75.5345 23.3288 76.8392 23.4005C77.4797 23.4403 78.1755 23.496 78.7844 23.5677C79.3932 23.6473 80.0891 23.7747 80.7454 23.9021C82.0738 24.1728 83.2756 25.3034 83.5761 26.5694C83.7263 27.2144 83.8687 27.8911 83.9398 28.4564C84.0189 29.0775 84.0584 29.8339 84.0663 30.5186C84.0822 31.6572 83.244 32.5012 82.0184 32.5569C81.2751 32.5967 80.4528 32.6127 79.7728 32.5569C79.0927 32.5012 78.2546 32.3499 77.4955 32.1907C76.2462 31.9279 75.242 30.8929 75.0206 29.6667C74.8862 28.9342 74.7596 28.13 74.7043 27.4691C74.6489 26.8799 74.6331 26.1793 74.6252 25.5184L74.6094 25.5344Z" fill="#387F5C"/>
<path d="M75.4089 35.7202C75.4642 34.4144 76.4763 33.4589 77.8363 33.4668C78.5084 33.4668 79.2201 33.4908 79.8526 33.5385C80.4773 33.5863 81.2048 33.6739 81.8769 33.7694C83.2448 33.9685 84.423 35.0274 84.6444 36.2934C84.7551 36.9304 84.85 37.6072 84.8895 38.1725C84.929 38.7935 84.9132 39.5579 84.8816 40.2426C84.8183 41.3892 83.9011 42.281 82.6439 42.4163C81.8848 42.4959 81.0387 42.5596 80.3429 42.5357C79.6471 42.5198 78.801 42.4083 78.034 42.2809C76.7689 42.0819 75.7884 41.0787 75.6302 39.8684C75.5275 39.1359 75.4405 38.3317 75.4089 37.6788C75.3851 37.0896 75.393 36.381 75.4167 35.7202H75.4089Z" fill="#387F5C"/>
<path d="M75.7317 45.903C75.8424 44.5893 76.9257 43.586 78.3094 43.5303C78.9894 43.4985 79.7248 43.4825 80.3573 43.4984C80.9978 43.5144 81.7253 43.5621 82.4132 43.6179C83.7969 43.7373 84.9356 44.7405 85.07 45.9906C85.1412 46.6276 85.1965 47.2964 85.1965 47.8617C85.1965 48.4827 85.1333 49.2471 85.0542 49.9398C84.9198 51.0943 83.9393 52.0418 82.6742 52.2409C81.9072 52.3603 81.0532 52.4638 80.3573 52.4797C79.6615 52.4957 78.8155 52.424 78.0564 52.3364C76.7992 52.1931 75.8661 51.2376 75.7554 50.0274C75.6922 49.3028 75.6289 48.4987 75.6289 47.8458C75.6289 47.2566 75.6763 46.5479 75.7317 45.8871V45.903Z" fill="#387F5C"/>
<path d="M75.5993 56.085C75.7733 54.7632 76.8961 53.7202 78.2878 53.6008C78.9678 53.5371 79.7031 53.4893 80.3436 53.4734C80.9841 53.4575 81.7115 53.4734 82.3915 53.4893C83.7674 53.5371 84.8428 54.4766 84.8981 55.7187C84.9297 56.3477 84.9376 57.0245 84.8981 57.5819C84.8586 58.2029 84.7479 58.9752 84.6214 59.6679C84.4158 60.8224 83.3879 61.8336 82.1306 62.1043C81.3636 62.2636 80.5254 62.4149 79.8454 62.4706C79.1654 62.5184 78.3352 62.4945 77.584 62.4467C76.3584 62.3591 75.4807 61.4435 75.4254 60.2412C75.3937 59.5167 75.37 58.7204 75.4017 58.0675C75.4254 57.4783 75.5044 56.7697 75.5914 56.1009L75.5993 56.085Z" fill="#387F5C"/>
<path d="M75.0003 66.2704C75.2296 64.9407 76.384 63.8499 77.752 63.6668C78.4241 63.5712 79.1436 63.4837 79.7762 63.4359C80.4009 63.3881 81.1204 63.3562 81.7846 63.3403C83.1367 63.3164 84.1251 64.1843 84.1014 65.4184C84.0935 66.0475 84.054 66.7163 83.9828 67.2736C83.9037 67.8947 83.7456 68.667 83.5716 69.3677C83.2949 70.5301 82.2353 71.597 81.0176 71.9315C80.2744 72.1305 79.452 72.3296 78.7957 72.4171C78.1394 72.5047 77.3408 72.5207 76.6213 72.5047C75.4431 72.4809 74.6445 71.605 74.6524 70.4027C74.6524 69.6862 74.6761 68.8899 74.7315 68.2291C74.7868 67.6399 74.8975 66.9313 75.0082 66.2545L75.0003 66.2704Z" fill="#387F5C"/>
<path d="M73.9246 76.4529C74.2093 75.1232 75.3716 73.9767 76.6921 73.7298C77.3405 73.6025 78.0442 73.483 78.6452 73.3954C79.2461 73.3158 79.9419 73.2521 80.5745 73.1964C81.8713 73.0929 82.7648 73.905 82.6541 75.1312C82.5987 75.7522 82.5197 76.421 82.409 76.9863C82.2904 77.6074 82.0848 78.3877 81.8713 79.0883C81.5234 80.2588 80.4559 81.3815 79.2857 81.7875C78.574 82.0344 77.7912 82.2732 77.1665 82.3926C76.5419 82.5121 75.7907 82.5678 75.1186 82.5917C74.0116 82.6235 73.3079 81.7875 73.3711 80.6011C73.4107 79.8846 73.466 79.0884 73.5609 78.4355C73.64 77.8463 73.7823 77.1297 73.9246 76.4608V76.4529Z" fill="#387F5C"/>
<path d="M44.0257 2.71509C44.1759 1.32172 45.1327 0.207031 46.2871 0.0955611C46.8564 0.0398262 47.4732 0 48.003 0C48.5328 0 49.1495 0.0398262 49.7188 0.0955611C50.8733 0.207031 51.83 1.32172 51.9803 2.71509C52.0593 3.42372 52.1226 4.17217 52.1384 4.79322C52.1621 5.48592 52.1384 6.3299 52.0909 7.09426C52.0198 8.3682 51.1975 9.37141 50.0668 9.53861C49.3788 9.64212 48.6197 9.72974 48.003 9.72974C47.3862 9.72974 46.6192 9.64212 45.9392 9.53861C44.8085 9.37141 43.9862 8.3682 43.915 7.09426C43.8755 6.3299 43.8438 5.48592 43.8675 4.79322C43.8834 4.17217 43.9545 3.42372 44.0257 2.71509Z" fill="#387F5C"/>
<path d="M14.1277 16.865C14.4993 15.5911 15.717 14.3968 16.9742 14.0544C17.5989 13.8872 18.2631 13.72 18.8403 13.6085C19.4175 13.4971 20.0738 13.4015 20.6748 13.3378C21.9004 13.1945 22.7385 14.0544 22.6594 15.3522C22.6199 16.0051 22.5645 16.7138 22.4855 17.303C22.3985 17.9559 22.2325 18.768 22.0743 19.5005C21.8055 20.7267 20.7934 21.8016 19.5757 22.128C18.8403 22.3271 18.018 22.5182 17.3617 22.6057C16.7054 22.6933 15.9147 22.7252 15.203 22.7252C14.0328 22.7252 13.2816 21.9449 13.3844 20.8143C13.4397 20.1375 13.5267 19.3811 13.6453 18.76C13.756 18.2027 13.9379 17.5179 14.1198 16.873L14.1277 16.865Z" fill="#387F5C"/>
<path d="M33.8641 14.0305C34.0855 12.653 35.1768 11.4985 36.4261 11.3074C37.0428 11.2119 37.707 11.1322 38.2842 11.0924C38.8615 11.0526 39.5177 11.0526 40.1345 11.0685C41.3759 11.0924 42.3327 12.1355 42.4117 13.5209C42.4513 14.2215 42.475 14.97 42.4513 15.591C42.4355 16.2837 42.3485 17.1277 42.2615 17.9C42.1192 19.1819 41.1862 20.2329 39.9843 20.4559C39.2568 20.5912 38.4503 20.7187 37.794 20.7505C37.1377 20.7824 36.3391 20.7266 35.6195 20.6549C34.4335 20.5435 33.5953 19.588 33.5716 18.338C33.5558 17.5895 33.5558 16.7615 33.6111 16.0767C33.6586 15.4636 33.7614 14.7232 33.8721 14.0305H33.8641Z" fill="#387F5C"/>
<path d="M43.7323 13.4806C43.8825 12.0872 44.9025 10.9805 46.1518 10.869C46.7686 10.8133 47.4249 10.7734 48.0021 10.7734C48.5793 10.7734 49.2356 10.8133 49.8524 10.869C51.0938 10.9805 52.1217 12.0872 52.2719 13.4726C52.3431 14.1733 52.4064 14.9297 52.4222 15.5507C52.438 16.2434 52.3985 17.0874 52.351 17.8518C52.264 19.1257 51.3863 20.1369 50.1923 20.3121C49.4649 20.4156 48.6663 20.5032 48.01 20.5032C47.3537 20.5032 46.5472 20.4156 45.8276 20.3121C44.6337 20.1369 43.756 19.1257 43.669 17.8518C43.6136 17.0874 43.582 16.2434 43.5978 15.5507C43.6136 14.9297 43.6769 14.1813 43.748 13.4726L43.7323 13.4806Z" fill="#387F5C"/>
<path d="M12.4395 26.5781C12.74 25.3121 13.9419 24.1815 15.2703 23.9108C15.9266 23.7754 16.6303 23.656 17.2312 23.5764C17.8401 23.4967 18.528 23.441 19.1764 23.4092C20.481 23.3295 21.4141 24.2372 21.4062 25.543C21.4062 26.2038 21.3825 26.9045 21.3271 27.4937C21.2639 28.1466 21.1373 28.9587 21.0108 29.6913C20.7973 30.9095 19.7931 31.9525 18.5359 32.2153C17.7768 32.3745 16.9387 32.5258 16.2587 32.5815C15.5786 32.6373 14.7563 32.6213 14.013 32.5815C12.7874 32.5178 11.9492 31.6738 11.9651 30.5432C11.973 29.8585 12.0125 29.1021 12.0916 28.481C12.1627 27.9237 12.3051 27.2389 12.4553 26.594L12.4395 26.5781Z" fill="#387F5C"/>
<path d="M10.9357 45.9984C11.078 44.7484 12.2087 43.7451 13.5925 43.6257C14.2725 43.5699 15.0079 43.5142 15.6483 43.5062C16.2888 43.4903 17.0163 43.5062 17.6963 43.5381C19.08 43.5938 20.1633 44.5891 20.274 45.9108C20.3293 46.5717 20.3768 47.2803 20.3768 47.8695C20.3768 48.5224 20.3214 49.3266 20.2503 50.0511C20.1396 51.2614 19.2065 52.2168 17.9493 52.3601C17.1823 52.4477 16.3362 52.5194 15.6483 52.5035C14.9525 52.4875 14.1065 52.384 13.3316 52.2646C12.0664 52.0655 11.0859 51.1101 10.9515 49.9635C10.8724 49.2708 10.8013 48.5065 10.8092 47.8854C10.8092 47.3201 10.8645 46.6513 10.9357 46.0143V45.9984Z" fill="#387F5C"/>
<path d="M43.528 24.2536C43.6704 22.8602 44.7457 21.7614 46.0583 21.6579C46.7067 21.6101 47.4025 21.5703 48.0114 21.5703C48.6202 21.5703 49.316 21.6101 49.9644 21.6579C51.277 21.7614 52.3524 22.8602 52.4947 24.2536C52.5658 24.9542 52.6291 25.7106 52.637 26.3317C52.6449 27.0244 52.5975 27.8684 52.5421 28.6407C52.4393 29.9146 51.5221 30.9338 50.2807 31.109C49.5295 31.2125 48.6993 31.308 48.0192 31.308C47.3392 31.308 46.509 31.2204 45.7578 31.109C44.5243 30.9338 43.5992 29.9146 43.4964 28.6407C43.4331 27.8763 43.3857 27.0244 43.4015 26.3317C43.4094 25.7106 43.4727 24.9622 43.5439 24.2536H43.528Z" fill="#387F5C"/>
<path d="M11.3797 36.2934C11.6011 35.0354 12.7793 33.9685 14.1472 33.7694C14.8193 33.6739 15.5468 33.5863 16.1715 33.5385C16.7961 33.4908 17.5157 33.4748 18.1878 33.4668C19.5399 33.4589 20.5599 34.4064 20.6153 35.7202C20.639 36.381 20.6548 37.0896 20.6232 37.6788C20.5915 38.3317 20.4967 39.1359 20.4018 39.8684C20.2357 41.0787 19.2632 42.0819 17.998 42.2809C17.231 42.4083 16.377 42.5119 15.6891 42.5357C14.9933 42.5517 14.1551 42.4959 13.3881 42.4163C12.1309 42.2889 11.2137 41.3892 11.1505 40.2426C11.1109 39.5499 11.0951 38.7935 11.1425 38.1725C11.1821 37.6151 11.277 36.9304 11.3877 36.2934H11.3797Z" fill="#387F5C"/>
<path d="M11.1179 55.7126C11.1733 54.4705 12.2486 53.531 13.6245 53.4832C14.3045 53.4593 15.032 53.4513 15.6724 53.4673C16.3129 53.4832 17.0404 53.5389 17.7283 53.5947C19.112 53.7141 20.2428 54.7651 20.4167 56.0788C20.5037 56.7476 20.5828 57.4563 20.6065 58.0455C20.6381 58.6984 20.6144 59.5025 20.5827 60.2191C20.5274 61.4214 19.6576 62.3371 18.4241 62.4247C17.6729 62.4804 16.8506 62.5043 16.1627 62.4485C15.4826 62.4008 14.6366 62.2495 13.8775 62.0823C12.6203 61.8116 11.6003 60.8084 11.3868 59.6459C11.2603 58.9452 11.1496 58.1808 11.11 57.5598C11.0705 57.0024 11.0863 56.3257 11.11 55.6967L11.1179 55.7126Z" fill="#387F5C"/>
<path d="M11.9223 65.4266C11.8986 64.1925 12.887 63.3166 14.2391 63.3485C14.9033 63.3644 15.6228 63.3883 16.2475 63.444C16.8722 63.4918 17.5996 63.5794 18.2717 63.675C19.6397 63.8581 20.7941 64.9568 21.0234 66.2785C21.142 66.9474 21.2448 67.664 21.3001 68.2532C21.3555 68.9061 21.3792 69.7023 21.3792 70.4268C21.3792 71.6211 20.5885 72.497 19.4103 72.5288C18.6908 72.5447 17.9001 72.5288 17.2359 72.4412C16.5796 72.3536 15.7573 72.1626 15.014 71.9556C13.7884 71.6212 12.7367 70.5542 12.46 69.3917C12.294 68.6911 12.1279 67.9188 12.0488 67.2977C11.9777 66.7324 11.9381 66.0636 11.9302 65.4425L11.9223 65.4266Z" fill="#387F5C"/>
<path d="M13.3531 75.1313C13.2424 73.8971 14.128 73.0929 15.4327 73.1964C16.0731 73.2522 16.7611 73.3159 17.362 73.3955C17.9629 73.4751 18.6667 73.6025 19.315 73.7299C20.6355 73.9847 21.8058 75.1233 22.0825 76.453C22.2249 77.1218 22.3672 77.8384 22.4463 78.4276C22.5332 79.0805 22.5886 79.8767 22.636 80.5933C22.6993 81.7876 21.9956 82.6236 20.8886 82.5838C20.2165 82.5679 19.4653 82.5042 18.8406 82.3848C18.2159 82.2653 17.4332 82.0265 16.7215 81.7796C15.5513 81.3736 14.4838 80.2589 14.1359 79.0805C13.9303 78.3719 13.7168 77.5995 13.5982 76.9785C13.4875 76.4211 13.4084 75.7523 13.3531 75.1233V75.1313Z" fill="#387F5C"/>
<path d="M23.4509 76.628C23.4035 75.3222 24.3444 74.4146 25.6412 74.4544C26.2817 74.4783 26.9696 74.5101 27.5784 74.5579C28.1794 74.6136 28.8831 74.7092 29.5315 74.8047C30.852 75.0038 31.9669 76.1344 32.1883 77.5039C32.299 78.1966 32.4018 78.9371 32.4492 79.5501C32.5046 80.2269 32.5125 81.055 32.5125 81.8034C32.5125 83.0455 31.7376 83.9691 30.6227 84.0169C29.9427 84.0488 29.1836 84.0408 28.5668 83.9612C27.9422 83.8815 27.1673 83.6904 26.4636 83.4834C25.3012 83.1411 24.297 82.0263 24.0202 80.8002C23.8542 80.0597 23.6881 79.2476 23.6012 78.5867C23.5221 77.9975 23.4826 77.2889 23.4589 76.628H23.4509Z" fill="#387F5C"/>
<path d="M33.5504 77.608C33.5741 76.2464 34.5546 75.2591 35.8593 75.2352C36.4997 75.2273 37.1956 75.2273 37.7965 75.2512C38.3974 75.2751 39.0933 75.3387 39.7417 75.4104C41.0542 75.5537 42.1296 76.6525 42.2799 78.0459C42.3589 78.7465 42.4222 79.495 42.438 80.124C42.4538 80.8167 42.4222 81.6607 42.3826 82.4251C42.3115 83.699 41.4812 84.6942 40.3584 84.8216C39.6705 84.9012 38.9114 84.949 38.2868 84.9012C37.6621 84.8614 36.8951 84.7181 36.1914 84.5509C35.0448 84.2802 34.096 83.1894 33.8825 81.9234C33.756 81.159 33.6373 80.323 33.5899 79.6462C33.5425 79.0332 33.5346 78.3006 33.5504 77.6159V77.608Z" fill="#387F5C"/>
<path d="M43.4553 67.3207C43.5581 65.9353 44.6334 64.8684 45.9856 64.7808C46.6577 64.741 47.3772 64.7012 48.0019 64.7012C48.6265 64.7012 49.3461 64.733 50.0182 64.7808C51.3782 64.8684 52.4457 65.9353 52.5485 67.3207C52.6038 68.0214 52.6354 68.7698 52.6275 69.3909C52.6196 70.0836 52.5484 70.9275 52.4615 71.6999C52.3271 72.9818 51.394 74.0248 50.2 74.2239C49.4726 74.3433 48.6582 74.4388 48.0019 74.4388C47.3456 74.4388 46.539 74.3433 45.8037 74.2239C44.6018 74.0328 43.6767 72.9818 43.5423 71.6999C43.4632 70.9275 43.392 70.0836 43.3762 69.3909C43.3683 68.7698 43.3999 68.0214 43.4553 67.3207Z" fill="#387F5C"/>
<path d="M43.6375 78.0839C43.7245 76.6985 44.7524 75.6396 46.0571 75.5599C46.7055 75.5201 47.3934 75.4883 48.0022 75.4883C48.6032 75.4883 49.299 75.5201 49.9474 75.5599C51.26 75.6396 52.2879 76.6985 52.3669 78.0839C52.4144 78.7846 52.4381 79.533 52.4302 80.1541C52.4144 80.8468 52.3353 81.6987 52.2563 82.4631C52.1139 83.745 51.2283 84.796 50.0897 84.9951C49.3939 85.1145 48.6269 85.218 48.0102 85.21C47.3855 85.21 46.6185 85.1145 45.9306 84.9951C44.7919 84.796 43.9063 83.7371 43.764 82.4631C43.677 81.6908 43.6059 80.8468 43.59 80.1541C43.5742 79.533 43.6059 78.7846 43.6533 78.0839H43.6375Z" fill="#387F5C"/>
<path d="M43.8972 88.8512C43.9683 87.4658 44.9251 86.4148 46.1665 86.3431C46.7753 86.3033 47.4316 86.2715 48.0009 86.2715C48.5703 86.2715 49.2265 86.3033 49.8354 86.3431C51.0768 86.4228 52.0336 87.4658 52.1047 88.8512C52.1443 89.5519 52.1601 90.3003 52.1443 90.9214C52.1205 91.6141 52.0415 92.466 51.9624 93.2304C51.8201 94.5123 50.9898 95.5712 49.9303 95.7783C49.2898 95.9057 48.5782 96.0012 48.0009 96.0012C47.4237 96.0012 46.7121 95.9057 46.0716 95.7783C45.02 95.5792 44.1897 94.5123 44.0395 93.2304C43.9525 92.4581 43.8734 91.6141 43.8576 90.9214C43.8418 90.3003 43.8576 89.5519 43.8972 88.8512Z" fill="#387F5C"/>
</svg>
