<svg width="96" height="96" viewBox="0 0 96 96" fill="none" xmlns="http://www.w3.org/2000/svg">
<path d="M71.6235 5.16735C71.4812 3.87748 72.1928 3.06535 73.3236 3.27236C73.885 3.37587 74.4859 3.50324 75.0236 3.64656C75.5534 3.78988 76.1781 3.99693 76.7553 4.19599C77.9256 4.61799 79.1274 5.87599 79.5781 7.15791C79.7995 7.81081 80.0209 8.49558 80.1712 9.05294C80.3293 9.67399 80.4717 10.4304 80.5745 11.1072C80.7484 12.2298 80.1079 12.9623 79.0167 12.8827C78.3525 12.835 77.6093 12.7633 76.9925 12.6359C76.3758 12.5085 75.5929 12.2776 74.8892 12.0467C73.7269 11.6645 72.7147 10.5419 72.4064 9.31567C72.2166 8.57519 72.0189 7.76303 71.9003 7.11013C71.7896 6.52092 71.7026 5.82026 71.6314 5.16735H71.6235Z" fill="#387F5C"/>
<path d="M53.6119 13.5199C53.6831 12.1345 54.6477 11.0914 55.8891 11.0675C56.5059 11.0516 57.1622 11.0596 57.7395 11.0914C58.3167 11.1312 58.9809 11.2109 59.5976 11.3064C60.847 11.4975 61.9382 12.652 62.1596 14.0295C62.2703 14.7302 62.373 15.4627 62.4205 16.0758C62.4679 16.7605 62.4758 17.5886 62.46 18.337C62.4363 19.5871 61.5981 20.5426 60.4121 20.654C59.6925 20.7257 58.8939 20.7735 58.2376 20.7496C57.5813 20.7177 56.7748 20.5903 56.0473 20.455C54.8454 20.232 53.9203 19.181 53.77 17.8991C53.6831 17.1268 53.604 16.2828 53.5803 15.5901C53.5645 14.969 53.5803 14.2206 53.6198 13.5199H53.6119Z" fill="#387F5C"/>
<path d="M4.25627 19.1643C4.70698 17.9779 5.98005 16.7916 7.2452 16.3696C7.86987 16.1626 8.54195 15.9555 9.11918 15.8122C9.6964 15.6609 10.3448 15.5256 10.9537 15.4141C12.1793 15.1832 12.9462 15.9237 12.796 17.1419C12.7169 17.755 12.6221 18.4158 12.5114 18.9732C12.3849 19.5942 12.1793 20.3586 11.9816 21.0593C11.6574 22.2218 10.5978 23.2887 9.37222 23.655C8.62895 23.8779 7.80659 24.1009 7.1503 24.2203C6.494 24.3398 5.70331 24.4114 4.99957 24.4512C3.83722 24.5229 3.13347 23.8461 3.29162 22.811C3.3865 22.182 3.513 21.4893 3.67114 20.916C3.81347 20.3985 4.03487 19.7615 4.25627 19.1563V19.1643Z" fill="#387F5C"/>
<path d="M83.2257 17.1419C83.0755 15.9237 83.8425 15.1832 85.0681 15.4141C85.677 15.5256 86.3254 15.6609 86.9026 15.8122C87.4798 15.9635 88.144 16.1626 88.7766 16.3696C90.0417 16.7916 91.3227 17.9779 91.7655 19.1643C91.9948 19.7694 92.2083 20.4064 92.3506 20.9239C92.5088 21.5052 92.6353 22.1979 92.7302 22.819C92.8883 23.862 92.1846 24.5308 91.0222 24.4592C90.3185 24.4114 89.5278 24.3477 88.8715 24.2282C88.2152 24.1088 87.3928 23.8859 86.6495 23.663C85.4239 23.2967 84.3644 22.2298 84.0402 21.0673C83.8425 20.3666 83.6369 19.6022 83.5104 18.9812C83.3997 18.4238 83.3048 17.7629 83.2257 17.1499V17.1419Z" fill="#387F5C"/>
<path d="M2.08061 28.1548C2.42852 26.9764 3.68577 25.8696 5.01417 25.5511C5.67047 25.3919 6.3742 25.2406 6.98305 25.1371C7.5919 25.0336 8.27983 24.946 8.92031 24.8743C10.2171 24.739 11.1106 25.5352 11.0474 26.7693C11.0157 27.3904 10.9683 28.0512 10.8892 28.6086C10.8022 29.2296 10.652 29.994 10.4939 30.6867C10.2408 31.8413 9.20498 32.8525 7.94774 33.1391C7.18075 33.3143 6.34259 33.4815 5.66258 33.5531C4.98256 33.6248 4.16022 33.6327 3.41695 33.6248C2.19925 33.6089 1.38481 32.8604 1.44016 31.8094C1.47179 31.1804 1.53504 30.4797 1.63784 29.8985C1.73272 29.3809 1.89877 28.744 2.07273 28.1468L2.08061 28.1548Z" fill="#387F5C"/>
<path d="M54.1117 56.5394C54.2461 55.154 55.3532 54.0711 56.7369 53.9676C57.4169 53.9198 58.1523 53.8721 58.7928 53.8721C59.4333 53.8721 60.1607 53.8959 60.8407 53.9278C62.2245 54.0074 63.3157 55.0505 63.4106 56.412C63.458 57.1047 63.4897 57.8373 63.4738 58.4503C63.458 59.1351 63.371 59.9632 63.284 60.7275C63.1259 61.9856 62.1533 63.0366 60.904 63.2515C60.1449 63.3869 59.3067 63.4984 58.6267 63.5143C57.9467 63.5302 57.1086 63.4585 56.3574 63.363C55.1239 63.2038 54.1987 62.1846 54.088 60.9107C54.0248 60.1463 53.9694 59.3023 53.9773 58.6096C53.9773 57.9885 54.0406 57.2401 54.1038 56.5394H54.1117Z" fill="#387F5C"/>
<path d="M84.9728 26.7692C84.9095 25.543 85.803 24.7388 87.0998 24.8742C87.7403 24.9379 88.4361 25.0255 89.037 25.137C89.6459 25.2405 90.3496 25.3997 91.0059 25.551C92.3343 25.8695 93.5837 26.9762 93.9395 28.1546C94.1134 28.7518 94.2795 29.3808 94.3744 29.9063C94.4772 30.4876 94.5404 31.1803 94.5721 31.8173C94.6274 32.8683 93.813 33.6167 92.5953 33.6326C91.852 33.6406 91.0297 33.6326 90.3496 33.561C89.6696 33.4893 88.8236 33.3221 88.0645 33.1469C86.8072 32.8603 85.7793 31.8491 85.5183 30.6946C85.3681 30.0019 85.21 29.2375 85.123 28.6164C85.0439 28.0591 85.0044 27.3982 84.9648 26.7772L84.9728 26.7692Z" fill="#387F5C"/>
<path d="M0.705379 37.1515C0.958408 35.9811 2.16031 34.9619 3.52825 34.739C4.20036 34.6275 4.9278 34.524 5.56037 34.4603C6.18504 34.3966 6.90459 34.3568 7.5767 34.3329C8.92883 34.2852 9.91726 35.153 9.94098 36.3872C9.94888 37.0082 9.94886 37.6771 9.91723 38.2344C9.8777 38.8555 9.76701 39.6119 9.65631 40.3046C9.47445 41.4511 8.48603 42.4066 7.22088 42.6136C6.45388 42.741 5.59993 42.8525 4.90409 42.8764C4.20826 42.9003 3.3701 42.8525 2.6031 42.7888C1.35377 42.6853 0.44445 41.8652 0.397007 40.8062C0.373285 40.1692 0.365363 39.4685 0.420713 38.8873C0.468156 38.3698 0.578864 37.7407 0.705379 37.1436V37.1515Z" fill="#387F5C"/>
<path d="M86.0802 36.395C86.1039 35.1609 87.0923 34.293 88.4444 34.3407C89.1086 34.3646 89.8282 34.4045 90.4608 34.4681C91.0854 34.5318 91.8129 34.6354 92.4929 34.7468C93.8609 34.9698 95.0706 35.989 95.3158 37.1594C95.4423 37.7486 95.553 38.3776 95.6004 38.9031C95.6558 39.4844 95.6479 40.185 95.6241 40.822C95.5767 41.881 94.6753 42.7011 93.418 42.8046C92.6589 42.8683 91.8129 42.9161 91.117 42.8922C90.4212 42.8683 89.5752 42.7568 88.8003 42.6294C87.5351 42.4224 86.5467 41.4669 86.3649 40.3204C86.2542 39.6277 86.1513 38.8713 86.1039 38.2502C86.0644 37.6928 86.0644 37.024 86.0802 36.403V36.395Z" fill="#387F5C"/>
<path d="M0.134437 46.1487C0.276766 44.9862 1.42329 44.0546 2.80705 43.9273C3.48706 43.8636 4.22243 43.8158 4.86291 43.7919C5.50339 43.776 6.23084 43.7839 6.91086 43.7999C8.28671 43.8397 9.36207 44.7712 9.47277 46.0133C9.52812 46.6423 9.56768 47.3112 9.56768 47.8685C9.56768 48.4896 9.51233 49.246 9.44907 49.9308C9.34628 51.0693 8.41324 51.9691 7.1639 52.0965C6.39691 52.1761 5.55083 52.2318 4.86291 52.208C4.16708 52.1841 3.32103 52.0806 2.54612 51.9611C1.28098 51.7621 0.292558 50.8703 0.150229 49.8034C0.0632496 49.1584 0 48.4498 0 47.8765C0 47.3589 0.0553579 46.7299 0.126522 46.1407L0.134437 46.1487Z" fill="#387F5C"/>
<path d="M64.9347 45.8215C65.0534 44.4599 66.1445 43.4169 67.5283 43.3452C68.2083 43.3134 68.9437 43.2895 69.5841 43.2974C70.2246 43.3054 70.9521 43.3532 71.64 43.4089C73.0238 43.5204 74.1466 44.5714 74.2889 45.8931C74.3601 46.562 74.4075 47.2706 74.4075 47.8678C74.4075 48.5286 74.3443 49.3328 74.2652 50.0653C74.1308 51.2835 73.1582 52.2788 71.9009 52.4779C71.1339 52.5973 70.28 52.7008 69.5921 52.7088C68.8962 52.7168 68.0501 52.6451 67.2832 52.5416C66.0259 52.3823 65.085 51.3791 64.9664 50.129C64.8952 49.3726 64.8398 48.5446 64.8398 47.8678C64.8398 47.2547 64.8873 46.5222 64.9426 45.8374L64.9347 45.8215Z" fill="#387F5C"/>
<path d="M86.5364 46.021C86.6471 44.7789 87.7224 43.8474 89.0983 43.8075C89.7783 43.7837 90.5137 43.7757 91.1463 43.7996C91.7868 43.8155 92.5221 43.8712 93.2021 43.9349C94.5859 44.0623 95.7324 45.0019 95.8747 46.1564C95.9459 46.7456 96.0013 47.3666 96.0013 47.8921C96.0013 48.4734 95.938 49.1741 95.851 49.819C95.7087 50.886 94.7203 51.7777 93.4551 51.9767C92.6881 52.0962 91.8342 52.1997 91.1384 52.2236C90.4425 52.2475 89.5965 52.1917 88.8374 52.1121C87.5801 51.9847 86.655 51.0929 86.5522 49.9464C86.4889 49.2616 86.4336 48.5052 86.4336 47.8842C86.4336 47.3268 86.481 46.658 86.5285 46.029L86.5364 46.021Z" fill="#387F5C"/>
<path d="M0.375065 55.146C0.414601 53.9994 1.48206 53.1395 2.85791 53.1156C3.53793 53.0997 4.26538 53.0997 4.90586 53.1236C5.54634 53.1474 6.2738 53.2032 6.96172 53.2669C8.34548 53.3943 9.48409 54.3975 9.67387 55.6476C9.76875 56.2766 9.85575 56.9533 9.89529 57.5107C9.93483 58.1318 9.9348 58.8882 9.91108 59.565C9.87945 60.7036 9.03342 61.5396 7.80781 61.5794C7.06453 61.6033 6.23428 61.6033 5.55426 61.5396C4.87424 61.4679 4.02818 61.3087 3.26118 61.1335C2.00394 60.8469 0.952273 59.8835 0.715058 58.8086C0.572729 58.1636 0.446206 57.447 0.390856 56.8737C0.343413 56.3562 0.343428 55.7352 0.36715 55.146H0.375065Z" fill="#387F5C"/>
<path d="M1.41702 64.1359C1.35377 62.9973 2.31053 62.2249 3.66265 62.2966C4.32685 62.3364 5.04644 62.3842 5.6711 62.4479C6.29577 62.5116 7.0232 62.623 7.69531 62.7265C9.06325 62.9415 10.2493 64.0085 10.5182 65.2665C10.6526 65.9035 10.787 66.5803 10.8661 67.1376C10.9452 67.7587 10.9926 68.5071 11.0242 69.1839C11.0717 70.3145 10.3205 71.0948 9.15026 71.055C8.43861 71.0311 7.64787 70.9754 6.98366 70.8639C6.32737 70.7525 5.50505 70.5216 4.75387 70.2986C3.52035 69.9244 2.42915 68.8893 2.09705 67.8065C1.89937 67.1536 1.70958 66.437 1.60679 65.8557C1.5119 65.3382 1.45657 64.7171 1.42494 64.1359H1.41702Z" fill="#387F5C"/>
<path d="M62.8971 88.0696C63.1422 86.6922 64.2334 85.5297 65.4827 85.2908C66.0995 85.1714 66.7558 85.0519 67.333 84.9803C67.9023 84.9006 68.5586 84.8449 69.1596 84.7971C70.3852 84.7096 71.2233 85.5695 71.1126 86.8673C71.0573 87.5282 70.9782 88.2289 70.8754 88.826C70.7647 89.4869 70.567 90.299 70.3693 91.0475C70.0451 92.2816 69.0568 93.4361 67.9735 93.8263C67.3172 94.0572 66.5897 94.2801 66.0125 94.3916C65.4353 94.4951 64.7394 94.527 64.1148 94.519C63.0868 94.519 62.4148 93.6113 62.4464 92.3692C62.4701 91.6208 62.5096 90.8006 62.5808 90.1239C62.644 89.5108 62.7626 88.7703 62.8892 88.0776L62.8971 88.0696Z" fill="#387F5C"/>
<path d="M73.9246 76.4529C74.2093 75.1233 75.3716 73.9767 76.6921 73.7299C77.3405 73.6025 78.0443 73.483 78.6452 73.3954C79.2462 73.3158 79.942 73.2521 80.5746 73.1964C81.8713 73.0929 82.7648 73.905 82.6541 75.1312C82.5988 75.7523 82.5197 76.4211 82.409 76.9864C82.2904 77.6074 82.0848 78.3877 81.8713 79.0884C81.5234 80.2588 80.456 81.3816 79.2857 81.7876C78.5741 82.0345 77.7912 82.2733 77.1666 82.3927C76.5419 82.5122 75.7907 82.5679 75.1186 82.5918C74.0116 82.6236 73.3079 81.7876 73.3711 80.6012C73.4107 79.8846 73.466 79.0884 73.5609 78.4355C73.64 77.8463 73.7823 77.1297 73.9246 76.4609V76.4529Z" fill="#387F5C"/>
<path d="M86.3479 55.6397C86.5377 54.3897 87.6763 53.3864 89.0601 53.259C89.7401 53.1954 90.4755 53.1396 91.1159 53.1157C91.7564 53.0919 92.4839 53.0919 93.1639 53.1078C94.5398 53.1396 95.6072 53.9916 95.6468 55.1381C95.6705 55.7194 95.6626 56.3404 95.623 56.866C95.5756 57.4472 95.4412 58.1558 95.2989 58.8008C95.0616 59.8757 94.0179 60.8391 92.7527 61.1257C91.9857 61.3009 91.1397 61.4601 90.4597 61.5318C89.7796 61.6034 88.9494 61.6034 88.2061 61.5716C86.9805 61.5318 86.1344 60.6878 86.1028 59.5572C86.087 58.8724 86.0791 58.124 86.1186 57.5029C86.1582 56.9456 86.2451 56.2767 86.34 55.6397H86.3479Z" fill="#387F5C"/>
<path d="M85.5088 65.2665C85.7776 64.0085 86.9637 62.9415 88.3317 62.7265C89.0038 62.6151 89.7312 62.5116 90.3559 62.4479C90.9806 62.3842 91.7001 62.3364 92.3643 62.2966C93.7085 62.2249 94.6732 62.9973 94.6099 64.1359C94.5783 64.7171 94.5151 65.3302 94.4281 65.8557C94.3253 66.437 94.1355 67.1536 93.9378 67.8065C93.6136 68.8893 92.5145 69.9244 91.281 70.2986C90.5298 70.5295 89.7075 70.7525 89.0512 70.8639C88.3949 70.9754 87.5963 71.0311 86.8846 71.055C85.7144 71.0948 84.9553 70.3066 85.0106 69.1839C85.0423 68.5071 85.0897 67.7587 85.1688 67.1376C85.24 66.5803 85.3744 65.9035 85.5167 65.2665H85.5088Z" fill="#387F5C"/>
<path d="M16.4425 7.15791C16.8932 5.87599 18.0951 4.61799 19.2654 4.19599C19.8426 3.98897 20.4673 3.78988 20.997 3.64656C21.5268 3.50324 22.1357 3.37587 22.6971 3.27236C23.8278 3.06535 24.5395 3.87748 24.3971 5.16735C24.326 5.82026 24.2311 6.52092 24.1283 7.11013C24.0097 7.76303 23.812 8.57519 23.6222 9.31567C23.306 10.5419 22.2938 11.6645 21.1394 12.0467C20.4356 12.2776 19.6607 12.5165 19.0361 12.6359C18.4193 12.7633 17.676 12.835 17.0118 12.8827C15.9206 12.9544 15.2801 12.2298 15.4541 11.1072C15.5569 10.4304 15.6992 9.68195 15.8574 9.05294C15.9997 8.49558 16.2211 7.80285 16.4504 7.15791H16.4425Z" fill="#387F5C"/>
<path d="M44.0296 2.71512C44.1798 1.32173 45.1366 0.207033 46.2911 0.0955621C46.8604 0.0398266 47.4771 0 48.0069 0C48.5367 0 49.1534 0.0398266 49.7228 0.0955621C50.8772 0.207033 51.834 1.32173 51.9842 2.71512C52.0633 3.42376 52.1265 4.17221 52.1424 4.79327C52.1661 5.48598 52.1424 6.32997 52.0949 7.09434C52.0237 8.36829 51.2014 9.37151 50.0707 9.53871C49.3828 9.64222 48.6237 9.72984 48.0069 9.72984C47.3902 9.72984 46.6232 9.64222 45.9431 9.53871C44.8124 9.37151 43.9901 8.36829 43.9189 7.09434C43.8794 6.32997 43.8477 5.48598 43.8715 4.79327C43.8873 4.17221 43.9584 3.42376 44.0296 2.71512Z" fill="#387F5C"/>
<path d="M43.7362 13.4796C43.8864 12.0862 44.9064 10.9795 46.1558 10.868C46.7725 10.8123 47.4288 10.7725 48.006 10.7725C48.5833 10.7725 49.2395 10.8123 49.8563 10.868C51.0977 10.9795 52.1257 12.0863 52.2759 13.4717C52.3471 14.1724 52.4103 14.9287 52.4261 15.5498C52.442 16.2425 52.4024 17.0865 52.355 17.8509C52.268 19.1249 51.3903 20.136 50.1963 20.3112C49.4688 20.4147 48.6702 20.5023 48.014 20.5023C47.3577 20.5023 46.5511 20.4147 45.8316 20.3112C44.6376 20.136 43.7599 19.1249 43.6729 17.8509C43.6175 17.0865 43.5859 16.2425 43.6017 15.5498C43.6175 14.9287 43.6808 14.1803 43.752 13.4717L43.7362 13.4796Z" fill="#387F5C"/>
<path d="M22.8069 25.3987C23.052 24.069 24.2143 22.9304 25.5348 22.7154C26.1911 22.6119 26.887 22.5084 27.4958 22.4607C28.1047 22.4049 28.8005 22.381 29.441 22.381C30.7457 22.3651 31.7262 23.3524 31.7657 24.714C31.7815 25.3987 31.7894 26.1312 31.7657 26.7443C31.7262 27.4211 31.6313 28.2571 31.5206 29.0136C31.3466 30.2716 30.3661 31.3226 29.1168 31.5615C28.3577 31.7048 27.5195 31.8401 26.8395 31.872C26.1595 31.9118 25.3292 31.872 24.586 31.8003C23.3604 31.6968 22.4906 30.7812 22.4669 29.5709C22.4511 28.8463 22.4669 28.0422 22.5143 27.3893C22.5697 26.8001 22.6803 26.0835 22.7989 25.4067L22.8069 25.3987Z" fill="#387F5C"/>
<path d="M43.3412 45.7821C43.4677 44.3967 44.5747 43.3138 45.9584 43.2183C46.6385 43.1705 47.3738 43.1387 48.0143 43.1387C48.6548 43.1387 49.3822 43.1785 50.0702 43.2183C51.4539 43.3138 52.5609 44.3967 52.6874 45.7821C52.7507 46.4828 52.7981 47.2313 52.7981 47.8603C52.7981 48.553 52.7349 49.397 52.6637 50.1693C52.5372 51.4433 51.5804 52.4784 50.3232 52.6615C49.5562 52.773 48.7101 52.8685 48.0143 52.8685C47.3185 52.8685 46.4724 52.773 45.7054 52.6615C44.4482 52.4784 43.4914 51.4433 43.3649 50.1693C43.2937 49.405 43.2305 48.553 43.2305 47.8603C43.2305 47.2392 43.2779 46.4908 43.3412 45.7821Z" fill="#387F5C"/>
<path d="M43.5319 24.2536C43.6743 22.8602 44.7496 21.7614 46.0622 21.6579C46.7106 21.6101 47.4065 21.5703 48.0153 21.5703C48.6242 21.5703 49.32 21.6101 49.9684 21.6579C51.2809 21.7614 52.3563 22.8602 52.4987 24.2536C52.5698 24.9543 52.6331 25.7107 52.641 26.3317C52.6489 27.0244 52.6015 27.8684 52.5461 28.6408C52.4433 29.9147 51.5261 30.9339 50.2846 31.1091C49.5335 31.2126 48.7032 31.3081 48.0232 31.3081C47.3432 31.3081 46.5129 31.2205 45.7618 31.1091C44.5282 30.9339 43.6031 29.9147 43.5003 28.6408C43.4371 27.8764 43.3896 27.0244 43.4054 26.3317C43.4133 25.7107 43.4766 24.9622 43.5478 24.2536H43.5319Z" fill="#387F5C"/>
<path d="M32.7231 35.2247C32.8891 33.8552 34.0119 32.7565 35.372 32.6211C36.0441 32.5574 36.7636 32.5017 37.3962 32.4857C38.0209 32.4698 38.7404 32.4857 39.4125 32.5176C40.7726 32.5813 41.84 33.6482 41.9507 35.0336C42.0061 35.7343 42.0456 36.4828 42.0377 37.1038C42.0377 37.7965 41.9666 38.6405 41.8875 39.4129C41.761 40.6868 40.7963 41.7219 39.5391 41.913C38.7721 42.0324 37.926 42.128 37.2301 42.136C36.5343 42.136 35.6883 42.0563 34.9292 41.9608C33.672 41.7936 32.731 40.7903 32.6361 39.5403C32.5808 38.7839 32.5333 37.9558 32.557 37.271C32.5729 36.6579 32.644 35.9174 32.7231 35.2247Z" fill="#387F5C"/>
<path d="M43.396 35.0169C43.5304 33.6236 44.6296 32.5327 45.9896 32.4372C46.6617 32.3894 47.3813 32.3496 48.0138 32.3496C48.6385 32.3496 49.3659 32.3894 50.038 32.4372C51.3981 32.5407 52.4972 33.6236 52.6316 35.0169C52.7028 35.7176 52.7581 36.4661 52.7581 37.0951C52.7581 37.7878 52.7107 38.6318 52.6395 39.4041C52.5288 40.6781 51.5799 41.7052 50.3227 41.8884C49.5557 41.9998 48.7097 42.0874 48.0138 42.0874C47.318 42.0874 46.4719 41.9919 45.7049 41.8884C44.4477 41.7052 43.4988 40.6781 43.3881 39.4041C43.317 38.6398 43.2695 37.7878 43.2695 37.0951C43.2695 36.474 43.3328 35.7256 43.396 35.0169Z" fill="#387F5C"/>
<path d="M13.357 75.1313C13.2463 73.8971 14.1319 73.0929 15.4366 73.1964C16.0771 73.2522 16.765 73.3159 17.3659 73.3955C17.9669 73.4751 18.6706 73.6025 19.319 73.7299C20.6395 73.9847 21.8097 75.1233 22.0865 76.453C22.2288 77.1218 22.3712 77.8384 22.4502 78.4276C22.5372 79.0805 22.5925 79.8768 22.64 80.5934C22.7033 81.7877 21.9995 82.6237 20.8925 82.5839C20.2204 82.568 19.4692 82.5043 18.8446 82.3849C18.2199 82.2654 17.4371 82.0266 16.7254 81.7797C15.5552 81.3737 14.4877 80.259 14.1398 79.0805C13.9342 78.3719 13.7207 77.5995 13.6021 76.9785C13.4914 76.4211 13.4123 75.7523 13.357 75.1233V75.1313Z" fill="#387F5C"/>
<path d="M21.8656 56.1335C21.9447 54.8197 23.0279 53.8165 24.4038 53.7528C25.0838 53.7209 25.8192 53.705 26.4517 53.713C27.0922 53.7209 27.8197 53.7687 28.5076 53.8244C29.8914 53.9359 31.0142 55.0108 31.1644 56.3803C31.2435 57.073 31.3068 57.8056 31.3226 58.4186C31.3384 59.0954 31.3067 59.9315 31.2593 60.6799C31.1802 61.93 30.2788 62.9014 29.0453 63.0288C28.2941 63.1004 27.4639 63.1561 26.7839 63.1243C26.1038 63.0924 25.2656 62.9571 24.4987 62.8058C23.2493 62.559 22.2451 61.5239 22.0633 60.3057C21.9526 59.5731 21.8577 58.761 21.826 58.1081C21.8023 57.5189 21.826 56.8023 21.8577 56.1414L21.8656 56.1335Z" fill="#387F5C"/>
<path d="M24.9082 86.8752C24.7975 85.5774 25.6357 84.7095 26.8613 84.805C27.4623 84.8528 28.1185 84.9085 28.6878 84.9881C29.2572 85.0678 29.9214 85.1792 30.5382 85.2987C31.7875 85.5375 32.8787 86.7 33.1238 88.0775C33.2503 88.7702 33.3689 89.5107 33.4322 90.1238C33.5033 90.8006 33.5429 91.6286 33.5666 92.3691C33.6061 93.6112 32.9261 94.511 31.8982 94.5189C31.2735 94.5189 30.5777 94.495 30.0004 94.3915C29.4232 94.288 28.6958 94.0651 28.0395 93.8262C26.9562 93.444 25.9757 92.2815 25.6436 91.0474C25.4459 90.3069 25.2561 89.4868 25.1375 88.8259C25.0347 88.2367 24.9557 87.5281 24.9003 86.8672L24.9082 86.8752Z" fill="#387F5C"/>
<path d="M32.951 67.0096C33.0143 65.648 34.058 64.6289 35.4101 64.5811C36.0743 64.5572 36.7939 64.5413 37.4265 64.5572C38.0511 64.5731 38.7707 64.6289 39.4428 64.6846C40.8028 64.804 41.902 65.8949 42.0443 67.2882C42.1154 67.9889 42.1787 68.7374 42.1866 69.3584C42.2024 70.0511 42.155 70.8951 42.1075 71.6595C42.0205 72.9334 41.1349 73.9446 39.941 74.08C39.2135 74.1676 38.407 74.2233 37.7507 74.1994C37.0944 74.1676 36.2799 74.0402 35.5446 73.8889C34.3348 73.6421 33.3701 72.5752 33.1803 71.3092C33.0696 70.5528 32.9668 69.7167 32.9352 69.032C32.9036 68.4189 32.9194 67.6863 32.951 66.9936V67.0096Z" fill="#387F5C"/>
<path d="M43.3646 56.5476C43.4832 55.1622 44.5823 54.0873 45.9582 53.9917C46.6382 53.944 47.3735 53.9121 48.0061 53.9121C48.6466 53.9121 49.3741 53.944 50.0541 53.9917C51.4378 54.0793 52.5369 55.1542 52.6476 56.5476C52.703 57.2483 52.7504 57.9967 52.7425 58.6178C52.7425 59.3105 52.6714 60.1545 52.5923 60.9268C52.4579 62.2008 51.509 63.2438 50.2676 63.4349C49.5085 63.5464 48.6782 63.6419 47.9982 63.6419C47.3182 63.6419 46.48 63.5464 45.7288 63.4349C44.4874 63.2438 43.5386 62.2008 43.4041 60.9268C43.3251 60.1625 43.2618 59.3105 43.2539 58.6178C43.2539 57.9967 43.2935 57.2483 43.3488 56.5476H43.3646Z" fill="#387F5C"/>
<path d="M43.4592 67.3207C43.562 65.9353 44.6373 64.8684 45.9895 64.7808C46.6616 64.741 47.3811 64.7012 48.0058 64.7012C48.6305 64.7012 49.35 64.733 50.0221 64.7808C51.3822 64.8684 52.4496 65.9353 52.5524 67.3207C52.6078 68.0214 52.6394 68.7699 52.6315 69.3909C52.6236 70.0836 52.5524 70.9276 52.4654 71.6999C52.331 72.9819 51.398 74.0249 50.204 74.224C49.4765 74.3434 48.6621 74.4389 48.0058 74.4389C47.3495 74.4389 46.543 74.3434 45.8076 74.224C44.6057 74.0329 43.6806 72.9819 43.5462 71.6999C43.4671 70.9276 43.3959 70.0836 43.3801 69.3909C43.3722 68.7699 43.4038 68.0214 43.4592 67.3207Z" fill="#387F5C"/>
<path d="M43.6414 78.084C43.7284 76.6985 44.7563 75.6396 46.061 75.5599C46.7094 75.5201 47.3973 75.4883 48.0062 75.4883C48.6071 75.4883 49.303 75.5201 49.9514 75.5599C51.2639 75.6396 52.2918 76.6985 52.3709 78.084C52.4184 78.7846 52.4421 79.5331 52.4342 80.1541C52.4184 80.8469 52.3393 81.6988 52.2602 82.4632C52.1179 83.7451 51.2323 84.7961 50.0937 84.9952C49.3978 85.1146 48.6309 85.2181 48.0141 85.2101C47.3894 85.2101 46.6224 85.1146 45.9345 84.9952C44.7959 84.7961 43.9103 83.7371 43.7679 82.4632C43.6809 81.6909 43.6098 80.8469 43.594 80.1541C43.5781 79.5331 43.6098 78.7846 43.6572 78.084H43.6414Z" fill="#387F5C"/>
<path d="M43.9011 88.8503C43.9722 87.4648 44.929 86.4138 46.1704 86.3422C46.7793 86.3023 47.4356 86.2705 48.0049 86.2705C48.5742 86.2705 49.2305 86.3023 49.8393 86.3422C51.0807 86.4218 52.0375 87.4648 52.1087 88.8503C52.1482 89.5509 52.164 90.2994 52.1482 90.9204C52.1245 91.6131 52.0455 92.4651 51.9664 93.2295C51.824 94.5114 50.9938 95.5704 49.9342 95.7774C49.2937 95.9048 48.5821 96.0003 48.0049 96.0003C47.4277 96.0003 46.716 95.9048 46.0755 95.7774C45.0239 95.5783 44.1936 94.5114 44.0434 93.2295C43.9564 92.4571 43.8773 91.6131 43.8615 90.9204C43.8457 90.2994 43.8615 89.5509 43.9011 88.8503Z" fill="#387F5C"/>
</svg>
