<svg width="96" height="96" viewBox="0 0 96 96" fill="none" xmlns="http://www.w3.org/2000/svg">
<path d="M54.0635 35.0346C54.1742 33.6492 55.2417 32.5823 56.6017 32.5186C57.2738 32.4867 57.9933 32.4708 58.618 32.4867C59.2426 32.5026 59.9701 32.5584 60.6422 32.6221C62.0022 32.7574 63.1329 33.8562 63.291 35.2257C63.3701 35.9184 63.4413 36.6589 63.4571 37.272C63.4729 37.9567 63.4334 38.7848 63.378 39.5412C63.2831 40.7912 62.3422 41.7945 61.085 41.9617C60.318 42.0652 59.4719 42.1448 58.784 42.1369C58.0882 42.1369 57.2422 42.0333 56.4752 41.9139C55.2101 41.7228 54.2533 40.6877 54.1268 39.4138C54.0477 38.6494 53.9845 37.7975 53.9766 37.1048C53.9766 36.4837 54.0082 35.7353 54.0635 35.0346Z" fill="#387F5C"/>
<path d="M64.736 35.2646C64.8151 33.9031 65.8588 32.8919 67.2188 32.8601C67.8909 32.8442 68.6104 32.8441 69.2351 32.876C69.8597 32.9078 70.5872 32.9795 71.2593 33.0591C72.6193 33.2263 73.7737 34.3171 73.9714 35.6389C74.0663 36.3077 74.1533 37.0243 74.177 37.6135C74.2086 38.2743 74.177 39.0785 74.1295 39.8031C74.0505 41.0133 73.1253 41.9688 71.8681 42.12C71.1011 42.2076 70.2551 42.2872 69.5672 42.2713C68.8713 42.2554 68.0253 42.1519 67.2583 42.0325C65.9932 41.8334 65.0285 40.8063 64.8783 39.5562C64.7913 38.7998 64.7123 37.9717 64.6885 37.287C64.6727 36.6739 64.6965 35.9414 64.736 35.2567V35.2646Z" fill="#387F5C"/>
<path d="M0.134435 46.1497C0.276761 44.9872 1.42327 44.0556 2.807 43.9282C3.487 43.8645 4.22235 43.8167 4.86282 43.7929C5.50329 43.7769 6.23073 43.7849 6.91074 43.8008C8.28656 43.8406 9.36191 44.7722 9.47261 46.0143C9.52796 46.6433 9.56751 47.3121 9.56751 47.8695C9.56751 48.4905 9.51216 49.2469 9.4489 49.9317C9.34611 51.0703 8.41309 51.97 7.16378 52.0974C6.39679 52.177 5.55074 52.2328 4.86282 52.2089C4.167 52.185 3.32097 52.0815 2.54608 51.962C1.28095 51.763 0.292552 50.8712 0.150226 49.8043C0.0632485 49.1593 0 48.4507 0 47.8774C0 47.3599 0.0553569 46.7309 0.12652 46.1417L0.134435 46.1497Z" fill="#387F5C"/>
<path d="M64.9347 45.8224C65.0533 44.4609 66.1445 43.4179 67.5282 43.3462C68.2082 43.3143 68.9436 43.2905 69.5841 43.2984C70.2245 43.3064 70.952 43.3542 71.6399 43.4099C73.0236 43.5214 74.1464 44.5724 74.2887 45.8941C74.3599 46.5629 74.4074 47.2716 74.4074 47.8687C74.4074 48.5296 74.3441 49.3337 74.265 50.0662C74.1306 51.2845 73.158 52.2797 71.9008 52.4788C71.1338 52.5982 70.2799 52.7017 69.592 52.7097C68.8962 52.7177 68.0501 52.646 67.2831 52.5425C66.0259 52.3832 65.085 51.38 64.9664 50.13C64.8952 49.3736 64.8398 48.5455 64.8398 47.8687C64.8398 47.2556 64.8873 46.5231 64.9426 45.8384L64.9347 45.8224Z" fill="#387F5C"/>
<path d="M86.5364 46.022C86.6471 44.7799 87.7224 43.8483 89.0982 43.8085C89.7782 43.7846 90.5136 43.7767 91.1462 43.8006C91.7867 43.8165 92.522 43.8722 93.202 43.9359C94.5857 44.0633 95.7323 45.0028 95.8746 46.1574C95.9457 46.7466 96.0011 47.3676 96.0011 47.8931C96.0011 48.4743 95.9379 49.175 95.8509 49.8199C95.7085 50.8869 94.7201 51.7786 93.455 51.9777C92.688 52.0971 91.8341 52.2006 91.1383 52.2245C90.4425 52.2484 89.5964 52.1926 88.8373 52.113C87.5801 51.9856 86.655 51.0939 86.5522 49.9473C86.4889 49.2626 86.4336 48.5062 86.4336 47.8851C86.4336 47.3278 86.481 46.659 86.5285 46.03L86.5364 46.022Z" fill="#387F5C"/>
<path d="M64.8528 56.3881C65.0031 55.0186 66.1258 53.9517 67.5096 53.8322C68.1896 53.7765 68.9249 53.7287 69.5654 53.7208C70.2059 53.7128 70.9333 53.7287 71.6133 53.7606C72.9892 53.8243 74.0724 54.8275 74.1515 56.1413C74.191 56.8101 74.2148 57.5187 74.1831 58.1079C74.1515 58.7688 74.0566 59.5729 73.9459 60.3055C73.7641 61.5237 72.7598 62.5587 71.5105 62.8056C70.7515 62.9568 69.9054 63.0842 69.2254 63.124C68.5454 63.1559 67.7152 63.1081 66.964 63.0285C65.7305 62.9091 64.8291 61.9297 64.75 60.6797C64.7026 59.9312 64.6631 59.1032 64.6868 58.4184C64.7026 57.8054 64.7658 57.0728 64.8449 56.3801L64.8528 56.3881Z" fill="#387F5C"/>
<path d="M75.5993 56.0859C75.7733 54.7642 76.8961 53.7212 78.2877 53.6018C78.9677 53.5381 79.7031 53.4903 80.3436 53.4744C80.984 53.4585 81.7115 53.4744 82.3915 53.4903C83.7673 53.538 84.8427 54.4776 84.898 55.7197C84.9296 56.3487 84.9375 57.0255 84.898 57.5829C84.8585 58.2039 84.7478 58.9762 84.6213 59.6689C84.4157 60.8234 83.3878 61.8346 82.1305 62.1053C81.3636 62.2646 80.5254 62.4159 79.8454 62.4716C79.1654 62.5194 78.3352 62.4955 77.584 62.4477C76.3584 62.3601 75.4807 61.4445 75.4254 60.2422C75.3937 59.5176 75.37 58.7214 75.4017 58.0685C75.4254 57.4793 75.5044 56.7707 75.5914 56.1019L75.5993 56.0859Z" fill="#387F5C"/>
<path d="M21.7396 45.8941C21.874 44.5724 23.0047 43.5294 24.3885 43.4099C25.0685 43.3542 25.8038 43.3064 26.4443 43.2984C27.0847 43.2905 27.8122 43.3143 28.5001 43.3462C29.8838 43.4179 30.975 44.4609 31.0936 45.8224C31.149 46.5151 31.1964 47.2477 31.1964 47.8528C31.1964 48.5296 31.1411 49.3656 31.0699 50.114C30.9513 51.3641 30.0104 52.3673 28.7531 52.5266C27.9862 52.6221 27.1401 52.7017 26.4443 52.6938C25.7485 52.6858 24.9024 52.5823 24.1355 52.4629C22.8703 52.2638 21.8977 51.2686 21.7712 50.0503C21.6921 49.3178 21.6289 48.5136 21.6289 47.8528C21.6289 47.2636 21.6843 46.547 21.7475 45.8782L21.7396 45.8941Z" fill="#387F5C"/>
<path d="M43.3412 45.7831C43.4677 44.3977 44.5747 43.3148 45.9584 43.2193C46.6384 43.1715 47.3738 43.1396 48.0142 43.1396C48.6547 43.1396 49.3821 43.1795 50.07 43.2193C51.4538 43.3148 52.5607 44.3977 52.6872 45.7831C52.7505 46.4838 52.798 47.2322 52.798 47.8612C52.798 48.5539 52.7347 49.3979 52.6635 50.1703C52.537 51.4442 51.5803 52.4793 50.3231 52.6624C49.5561 52.7739 48.71 52.8694 48.0142 52.8694C47.3184 52.8694 46.4723 52.7739 45.7054 52.6624C44.4481 52.4793 43.4914 51.4442 43.3649 50.1703C43.2937 49.4059 43.2305 48.5539 43.2305 47.8612C43.2305 47.2402 43.2779 46.4917 43.3412 45.7831Z" fill="#387F5C"/>
<path d="M11.3797 36.2915C11.6011 35.0334 12.7793 33.9665 14.1472 33.7675C14.8193 33.6719 15.5468 33.5844 16.1714 33.5366C16.7961 33.4888 17.5156 33.4729 18.1877 33.4649C19.5398 33.4569 20.5598 34.4045 20.6152 35.7182C20.6389 36.3791 20.6547 37.0877 20.6231 37.6769C20.5914 38.3298 20.4966 39.134 20.4017 39.8665C20.2356 41.0767 19.2631 42.08 17.9979 42.279C17.231 42.4064 16.377 42.5099 15.6891 42.5338C14.9933 42.5497 14.1551 42.494 13.3881 42.4144C12.1309 42.287 11.2137 41.3872 11.1505 40.2407C11.1109 39.548 11.0951 38.7916 11.1425 38.1705C11.1821 37.6132 11.277 36.9284 11.3877 36.2915H11.3797Z" fill="#387F5C"/>
<path d="M22.0464 35.6477C22.2362 34.318 23.3906 33.2271 24.7585 33.0679C25.4306 32.9883 26.1581 32.9166 26.7828 32.8848C27.4074 32.8529 28.127 32.8529 28.799 32.8689C30.1511 32.9007 31.2028 33.9119 31.2818 35.2734C31.3214 35.9582 31.3451 36.6907 31.3293 37.3038C31.3135 37.9806 31.2265 38.8166 31.1395 39.573C30.9893 40.831 30.0246 41.8581 28.7595 42.0492C27.9925 42.1687 27.1386 42.2722 26.4506 42.2881C25.7548 42.304 24.9088 42.2244 24.1497 42.1368C22.8925 41.9855 21.9673 41.0301 21.8883 39.8198C21.8408 39.0953 21.8092 38.2911 21.8409 37.6302C21.8646 37.041 21.9515 36.3244 22.0464 35.6556V35.6477Z" fill="#387F5C"/>
<path d="M21.8656 56.1344C21.9446 54.8207 23.0279 53.8175 24.4037 53.7538C25.0837 53.7219 25.8191 53.706 26.4517 53.7139C27.0921 53.7219 27.8196 53.7697 28.5075 53.8254C29.8912 53.9369 31.014 55.0118 31.1643 56.3813C31.2433 57.074 31.3066 57.8065 31.3224 58.4196C31.3382 59.0964 31.3066 59.9324 31.2591 60.6808C31.18 61.9309 30.2786 62.9023 29.0451 63.0297C28.294 63.1013 27.4638 63.157 26.7838 63.1252C26.1038 63.0933 25.2656 62.958 24.4986 62.8067C23.2493 62.5599 22.2451 61.5248 22.0633 60.3066C21.9526 59.5741 21.8577 58.7619 21.826 58.109C21.8023 57.5198 21.826 56.8033 21.8577 56.1424L21.8656 56.1344Z" fill="#387F5C"/>
<path d="M32.6104 56.4125C32.7053 55.051 33.7965 54 35.1802 53.9283C35.8602 53.8885 36.5956 53.8647 37.2281 53.8726C37.8686 53.8726 38.596 53.9204 39.284 53.9681C40.6677 54.0717 41.7747 55.1545 41.9091 56.5399C41.9803 57.2406 42.0356 57.9891 42.0356 58.6101C42.0356 59.3028 41.9882 60.1468 41.9249 60.9112C41.8221 62.1851 40.897 63.2042 39.6556 63.3635C38.9044 63.459 38.0663 63.5307 37.3863 63.5148C36.7063 63.4989 35.8681 63.3794 35.1091 63.252C33.8597 63.037 32.8872 61.9861 32.729 60.728C32.6341 59.9716 32.5551 59.1356 32.5393 58.4509C32.5235 57.8378 32.5551 57.1052 32.6025 56.4125H32.6104Z" fill="#387F5C"/>
</svg>
