<svg width="96" height="96" viewBox="0 0 96 96" fill="none" xmlns="http://www.w3.org/2000/svg">
<path d="M13.5189 42.3881C12.1335 42.3169 11.0904 41.3523 11.0666 40.1109C11.0506 39.4941 11.0586 38.8378 11.0904 38.2606C11.1302 37.6834 11.2099 37.0192 11.3054 36.4024C11.4965 35.1531 12.6511 34.0619 14.0285 33.8405C14.7292 33.7298 15.4617 33.6271 16.0748 33.5796C16.7595 33.5322 17.5876 33.5243 18.336 33.5401C19.5861 33.5638 20.5416 34.4019 20.653 35.588C20.7247 36.3076 20.7725 37.1062 20.7486 37.7625C20.7167 38.4187 20.5893 39.2253 20.454 39.9527C20.231 41.1546 19.18 42.0797 17.8981 42.23C17.1258 42.3169 16.2818 42.396 15.5891 42.4197C14.968 42.4355 14.2196 42.4197 13.5189 42.3802L13.5189 42.3881Z" fill="#387F5C"/>
<path d="M35.0346 41.9384C33.6492 41.8277 32.5823 40.7603 32.5186 39.4003C32.4867 38.7282 32.4708 38.0086 32.4867 37.384C32.5026 36.7593 32.5584 36.0318 32.6221 35.3597C32.7574 33.9997 33.8562 32.869 35.2257 32.7109C35.9184 32.6318 36.6589 32.5606 37.272 32.5448C37.9567 32.529 38.7848 32.5685 39.5412 32.6239C40.7913 32.7188 41.7945 33.6597 41.9617 34.9169C42.0652 35.6839 42.1449 36.53 42.1369 37.2179C42.1369 37.9137 42.0334 38.7598 41.9139 39.5267C41.7228 40.7919 40.6878 41.7487 39.4138 41.8752C38.6495 41.9542 37.7975 42.0175 37.1048 42.0254C36.4837 42.0254 35.7353 41.9938 35.0346 41.9384Z" fill="#387F5C"/>
<path d="M56.5384 41.8902C55.153 41.7558 54.0701 40.6488 53.9666 39.2651C53.9188 38.5851 53.8711 37.8497 53.8711 37.2092C53.8711 36.5688 53.895 35.8413 53.9268 35.1613C54.0064 33.7776 55.0495 32.6864 56.411 32.5915C57.1037 32.5441 57.8363 32.5124 58.4494 32.5282C59.1341 32.544 59.9622 32.631 60.7265 32.718C61.9846 32.8762 63.0356 33.8487 63.2505 35.098C63.3859 35.8571 63.4974 36.6953 63.5133 37.3753C63.5292 38.0553 63.4575 38.8934 63.362 39.6446C63.2028 40.8781 62.1836 41.8032 60.9097 41.9139C60.1453 41.9772 59.3013 42.0325 58.6086 42.0246C57.9875 42.0246 57.2391 41.9614 56.5384 41.8981L56.5384 41.8902Z" fill="#387F5C"/>
<path d="M78.0537 42.2615C76.6603 42.1113 75.5615 41.0359 75.4182 39.7233C75.3466 39.075 75.2829 38.3792 75.259 37.7782C75.2351 37.1773 75.2351 36.4815 75.243 35.841C75.2669 34.5363 76.2542 33.5558 77.6158 33.5321C78.3005 33.5242 79.033 33.5321 79.6461 33.5716C80.3309 33.6191 81.1669 33.7377 81.9233 33.8642C83.1893 34.0777 84.2801 35.0186 84.5508 36.1731C84.718 36.8768 84.8613 37.6438 84.9012 38.2684C84.941 38.8931 84.9012 39.6522 84.8215 40.3401C84.6941 41.4708 83.6989 42.2932 82.4249 42.3643C81.6606 42.4039 80.8166 42.4355 80.1238 42.4197C79.5028 42.4039 78.7544 42.3327 78.0457 42.2615L78.0537 42.2615Z" fill="#387F5C"/>
<path d="M35.2627 31.264C33.9011 31.1849 32.89 30.1412 32.8581 28.7812C32.8422 28.1091 32.8422 27.3895 32.874 26.7649C32.9059 26.1402 32.9776 25.4128 33.0572 24.7407C33.2244 23.3806 34.3152 22.2262 35.6369 22.0285C36.3057 21.9337 37.0223 21.8467 37.6115 21.823C38.2724 21.7913 39.0766 21.823 39.8011 21.8704C41.0114 21.9495 41.9669 22.8746 42.1181 24.1318C42.2057 24.8988 42.2853 25.7449 42.2694 26.4328C42.2535 27.1286 42.15 27.9747 42.0305 28.7417C41.8315 30.0068 40.8044 30.9715 39.5543 31.1217C38.7979 31.2087 37.9698 31.2877 37.2851 31.3115C36.672 31.3273 35.9395 31.3035 35.2547 31.264L35.2627 31.264Z" fill="#387F5C"/>
<path d="M35.7182 20.5892C34.4124 20.5338 33.4569 19.5217 33.4649 18.1617C33.4649 17.4896 33.4888 16.778 33.5366 16.1454C33.5844 15.5208 33.6719 14.7933 33.7675 14.1212C33.9665 12.7533 35.0255 11.5751 36.2915 11.3537C36.9284 11.243 37.6052 11.1481 38.1706 11.1086C38.7916 11.0691 39.556 11.0849 40.2407 11.1165C41.3873 11.1798 42.2791 12.097 42.4144 13.3542C42.494 14.1133 42.5577 14.9593 42.5339 15.6552C42.5179 16.351 42.4064 17.1971 42.2791 17.9641C42.08 19.2292 41.0768 20.2097 39.8665 20.3678C39.134 20.4706 38.3298 20.5576 37.6769 20.5892C37.0877 20.6129 36.3791 20.605 35.7182 20.5813L35.7182 20.5892Z" fill="#387F5C"/>
<path d="M56.3881 31.1452C55.0186 30.995 53.9517 29.8722 53.8322 28.4885C53.7765 27.8085 53.7287 27.0731 53.7208 26.4326C53.7128 25.7921 53.7287 25.0647 53.7606 24.3847C53.8243 23.0088 54.8275 21.9256 56.1413 21.8465C56.8101 21.807 57.5187 21.7832 58.1079 21.8149C58.7688 21.8465 59.573 21.9414 60.3055 22.0521C61.5237 22.2339 62.5588 23.2381 62.8056 24.4875C62.9569 25.2465 63.0843 26.0926 63.1241 26.7726C63.1559 27.4526 63.1082 28.2829 63.0286 29.034C62.9091 30.2675 61.9298 31.169 60.6797 31.248C59.9313 31.2955 59.1032 31.335 58.4185 31.3113C57.8054 31.2955 57.0729 31.2322 56.3801 31.1531L56.3881 31.1452Z" fill="#387F5C"/>
<path d="M2.71511 51.9724C1.32173 51.8221 0.207032 50.8654 0.0955618 49.7109C0.0398265 49.1416 4.33947e-08 48.5248 4.97563e-08 47.9951C5.61178e-08 47.4653 0.0398266 46.8486 0.0955619 46.2793C0.207033 45.1248 1.32173 44.1681 2.71511 44.0178C3.42375 43.9388 4.1722 43.8755 4.79325 43.8597C5.48596 43.836 6.32995 43.8597 7.09432 43.9071C8.36827 43.9783 9.37148 44.8006 9.53869 45.9313C9.6422 46.6192 9.72981 47.3783 9.72981 47.9951C9.72981 48.6118 9.6422 49.3788 9.53869 50.0588C9.37148 51.1895 8.36827 52.0119 7.09432 52.0831C6.32995 52.1226 5.48596 52.1542 4.79325 52.1305C4.1722 52.1147 3.42375 52.0435 2.71511 51.9724Z" fill="#387F5C"/>
<path d="M13.4806 52.2658C12.0872 52.1156 10.9805 51.0955 10.869 49.8462C10.8133 49.2295 10.7734 48.5732 10.7734 47.996C10.7734 47.4187 10.8133 46.7625 10.869 46.1457C10.9805 44.9043 12.0872 43.8764 13.4727 43.7261C14.1733 43.655 14.9297 43.5917 15.5508 43.5759C16.2435 43.5601 17.0875 43.5996 17.8519 43.6471C19.1258 43.734 20.137 44.6118 20.3122 45.8057C20.4157 46.5332 20.5032 47.3318 20.5032 47.988C20.5032 48.6443 20.4157 49.4509 20.3122 50.1704C20.137 51.3644 19.1258 52.2421 17.8519 52.3291C17.0875 52.3844 16.2435 52.416 15.5508 52.4002C14.9297 52.3844 14.1813 52.3212 13.4727 52.25L13.4806 52.2658Z" fill="#387F5C"/>
<path d="M25.4007 73.1951C24.071 72.95 22.9324 71.7876 22.7174 70.4672C22.6139 69.8109 22.5104 69.115 22.4626 68.5062C22.4069 67.8973 22.383 67.2015 22.383 66.5611C22.3671 65.2564 23.3544 64.2759 24.7159 64.2363C25.4007 64.2205 26.1332 64.2126 26.7463 64.2363C27.4231 64.2759 28.2591 64.3708 29.0155 64.4815C30.2735 64.6554 31.3245 65.6359 31.5634 66.8852C31.7067 67.6443 31.8421 68.4825 31.8739 69.1625C31.9137 69.8425 31.8739 70.6727 31.8023 71.416C31.6987 72.6416 30.7831 73.5114 29.5728 73.5351C28.8483 73.5509 28.0441 73.5351 27.3912 73.4876C26.802 73.4323 26.0854 73.3216 25.4086 73.203L25.4007 73.1951Z" fill="#387F5C"/>
<path d="M45.8231 63.4615C44.4537 63.3271 43.3867 62.2122 43.2752 60.8284C43.2275 60.1484 43.1797 59.4131 43.1797 58.7726C43.1797 58.1321 43.2036 57.4047 43.2434 56.7167C43.323 55.333 44.3979 54.2339 45.7913 54.1153C46.492 54.052 47.2404 54.0046 47.8615 54.0046C48.5542 54.0046 49.3982 54.0679 50.1625 54.139C51.4365 54.2576 52.4636 55.2065 52.6388 56.4637C52.7423 57.2307 52.8299 58.0768 52.8299 58.7726C52.8299 59.4684 52.7264 60.3144 52.607 61.0814C52.4159 62.3466 51.3887 63.3113 50.1307 63.4378C49.3743 63.5168 48.5383 63.5801 47.8615 63.5801C47.2484 63.5801 46.5159 63.5326 45.8231 63.4615Z" fill="#387F5C"/>
<path d="M45.7841 52.6608C44.3987 52.5343 43.3158 51.4273 43.2202 50.0435C43.1725 49.3635 43.1406 48.6282 43.1406 47.9877C43.1406 47.3472 43.1804 46.6198 43.2202 45.9319C43.3158 44.5481 44.3987 43.4412 45.7841 43.3146C46.4848 43.2514 47.2332 43.2039 47.8622 43.2039C48.5549 43.2039 49.3989 43.2672 50.1713 43.3383C51.4452 43.4649 52.4803 44.4216 52.6634 45.6789C52.7749 46.4458 52.8704 47.2919 52.8704 47.9877C52.8704 48.6835 52.7749 49.5296 52.6634 50.2966C52.4803 51.5538 51.4452 52.5106 50.1713 52.6371C49.4069 52.7083 48.5549 52.7715 47.8622 52.7715C47.2412 52.7715 46.4927 52.724 45.7841 52.6608Z" fill="#387F5C"/>
<path d="M24.541 62.7891C23.1715 62.5915 22.0409 61.4765 21.8816 60.156C21.802 59.5077 21.7383 58.804 21.7065 58.203C21.6826 57.5942 21.6906 56.8983 21.7065 56.25C21.7543 54.9374 22.8052 53.9174 24.1907 53.8225C24.8913 53.7751 25.6398 53.7434 26.2608 53.7592C26.9535 53.775 27.7975 53.8462 28.5699 53.9332C29.8518 54.0755 30.8948 55.0244 31.1019 56.2658C31.2293 57.017 31.3407 57.8551 31.3566 58.5351C31.3726 59.2151 31.3089 60.0454 31.2213 60.7965C31.078 62.03 30.1066 62.9236 28.8485 62.9868C28.0921 63.0263 27.2641 63.0421 26.5873 63.0105C25.9742 62.9789 25.2337 62.8919 24.541 62.797L24.541 62.7891Z" fill="#387F5C"/>
<path d="M24.2536 52.47C22.8602 52.3277 21.7614 51.2523 21.6579 49.9398C21.6101 49.2914 21.5703 48.5955 21.5703 47.9867C21.5703 47.3778 21.6101 46.682 21.6579 46.0337C21.7614 44.7211 22.8602 43.6457 24.2536 43.5034C24.9543 43.4322 25.7107 43.369 26.3317 43.361C27.0244 43.3531 27.8684 43.4006 28.6408 43.4559C29.9147 43.5587 30.9339 44.476 31.109 45.7174C31.2125 46.4686 31.3081 47.2988 31.3081 47.9788C31.3081 48.6588 31.2205 49.489 31.109 50.2402C30.9339 51.4737 29.9147 52.3989 28.6408 52.5016C27.8764 52.5649 27.0244 52.6124 26.3317 52.5965C25.7107 52.5886 24.9622 52.5254 24.2536 52.4542L24.2536 52.47Z" fill="#387F5C"/>
<path d="M35.0189 52.604C33.6255 52.4696 32.5347 51.3705 32.4392 50.0104C32.3914 49.3383 32.3516 48.6188 32.3516 47.9862C32.3516 47.3616 32.3914 46.6341 32.4392 45.962C32.5427 44.602 33.6255 43.5029 35.0189 43.3685C35.7196 43.2973 36.468 43.242 37.097 43.242C37.7897 43.242 38.6337 43.2894 39.4061 43.3606C40.68 43.4713 41.7072 44.4201 41.8903 45.6774C42.0018 46.4444 42.0893 47.2904 42.0893 47.9862C42.0893 48.682 41.9938 49.5281 41.8903 50.2951C41.7072 51.5523 40.68 52.5012 39.4061 52.6119C38.6417 52.683 37.7897 52.7305 37.097 52.7305C36.476 52.7305 35.7275 52.6672 35.0189 52.604Z" fill="#387F5C"/>
<path d="M65.4227 84.0758C64.1886 84.0995 63.3127 83.1111 63.3446 81.759C63.3605 81.0948 63.3844 80.3752 63.4401 79.7506C63.4879 79.1259 63.5755 78.3984 63.671 77.7263C63.8542 76.3584 64.9529 75.204 66.2747 74.9747C66.9435 74.8561 67.6601 74.7533 68.2493 74.6979C68.9022 74.6426 69.6984 74.6189 70.423 74.6189C71.6173 74.6189 72.4931 75.4096 72.525 76.5877C72.5409 77.3073 72.525 78.098 72.4374 78.7622C72.3498 79.4185 72.1587 80.2408 71.9517 80.9841C71.6173 82.2097 70.5504 83.2613 69.3879 83.538C68.6872 83.7041 67.9149 83.8702 67.2938 83.9492C66.7285 84.0204 66.0597 84.0599 65.4386 84.0678L65.4227 84.0758Z" fill="#387F5C"/>
<path d="M66.3827 73.5586C65.0689 73.5428 64.1134 72.5228 64.1055 71.1707C64.1055 70.5065 64.1055 69.7869 64.1373 69.1623C64.1692 68.5376 64.2408 67.8181 64.3204 67.146C64.4717 65.7859 65.5785 64.6552 66.9479 64.4655C67.6407 64.3706 68.3732 64.2836 68.9863 64.252C69.6631 64.2124 70.4912 64.2282 71.2396 64.252C72.4897 64.2915 73.4371 65.1376 73.5247 66.3236C73.5805 67.0432 73.5964 67.8418 73.5407 68.5059C73.4849 69.1622 73.3177 69.9767 73.1426 70.7199C72.848 71.9376 71.773 72.9497 70.5469 73.179C69.8064 73.3214 69.0022 73.4479 68.3413 73.5032C67.7521 73.5507 67.0435 73.5665 66.3747 73.5586L66.3827 73.5586Z" fill="#387F5C"/>
<path d="M67.0096 63.0509C65.648 62.9877 64.6289 61.944 64.5811 60.5918C64.5572 59.9277 64.5413 59.2081 64.5572 58.5755C64.5731 57.9509 64.6289 57.2313 64.6846 56.5592C64.804 55.1992 65.8949 54.1001 67.2882 53.9578C67.9889 53.8866 68.7374 53.8234 69.3584 53.8155C70.0511 53.7996 70.8951 53.8471 71.6595 53.8945C72.9334 53.9815 73.9446 54.8671 74.08 56.0611C74.1676 56.7885 74.2233 57.5951 74.1994 58.2513C74.1676 58.9076 74.0402 59.7221 73.8889 60.4574C73.6421 61.6672 72.5751 62.6319 71.3091 62.8216C70.5527 62.9323 69.7167 63.0351 69.032 63.0667C68.4189 63.0984 67.6863 63.0825 66.9936 63.0509L67.0096 63.0509Z" fill="#387F5C"/>
<path d="M56.5496 52.6374C55.1641 52.5187 54.0892 51.4196 53.9937 50.0438C53.9459 49.3638 53.9141 48.6284 53.9141 47.9959C53.9141 47.3554 53.9459 46.628 53.9937 45.948C54.0813 44.5642 55.1562 43.4651 56.5496 43.3544C57.2502 43.2991 57.9987 43.2516 58.6197 43.2595C59.3124 43.2595 60.1564 43.3307 60.9288 43.4098C62.2027 43.5442 63.2458 44.493 63.4368 45.7344C63.5483 46.4935 63.6438 47.3238 63.6438 48.0038C63.6438 48.6838 63.5483 49.522 63.4368 50.2731C63.2458 51.5146 62.2027 52.4634 60.9288 52.5978C60.1644 52.6769 59.3124 52.7401 58.6197 52.748C57.9987 52.748 57.2502 52.7085 56.5496 52.6531L56.5496 52.6374Z" fill="#387F5C"/>
<path d="M67.3188 52.5408C65.9334 52.438 64.8664 51.3627 64.7788 50.0106C64.739 49.3385 64.6992 48.6189 64.6992 47.9942C64.6992 47.3696 64.7311 46.65 64.7788 45.9779C64.8664 44.6179 65.9334 43.5505 67.3188 43.4477C68.0194 43.3923 68.7679 43.3607 69.3889 43.3686C70.0817 43.3765 70.9256 43.4477 71.698 43.5347C72.9799 43.6691 74.023 44.6021 74.222 45.7961C74.3414 46.5235 74.437 47.338 74.437 47.9942C74.437 48.6505 74.3414 49.4571 74.222 50.1924C74.0309 51.3943 72.9799 52.3194 71.698 52.4538C70.9256 52.5329 70.0817 52.6041 69.3889 52.6199C68.7679 52.6278 68.0194 52.5962 67.3188 52.5408Z" fill="#387F5C"/>
<path d="M78.084 52.3586C76.6985 52.2716 75.6396 51.2437 75.5599 49.939C75.5201 49.2906 75.4883 48.6027 75.4883 47.9939C75.4883 47.3929 75.5201 46.6971 75.5599 46.0487C75.6396 44.7361 76.6985 43.7083 78.084 43.6292C78.7846 43.5817 79.5331 43.558 80.1541 43.5659C80.8468 43.5817 81.6988 43.6608 82.4632 43.7399C83.7451 43.8822 84.7961 44.7678 84.9951 45.9064C85.1146 46.6022 85.2181 47.3692 85.2101 47.986C85.2101 48.6106 85.1146 49.3776 84.9951 50.0655C84.7961 51.2042 83.7371 52.0897 82.4632 52.2321C81.6908 52.3191 80.8468 52.3902 80.1541 52.406C79.5331 52.4219 78.7846 52.3902 78.084 52.3428L78.084 52.3586Z" fill="#387F5C"/>
<path d="M88.8493 52.0989C87.4639 52.0278 86.4128 51.071 86.3412 49.8296C86.3014 49.2208 86.2695 48.5645 86.2695 47.9952C86.2695 47.4259 86.3014 46.7696 86.3412 46.1607C86.4208 44.9193 87.4639 43.9626 88.8493 43.8914C89.5499 43.8519 90.2984 43.836 90.9194 43.8519C91.6122 43.8756 92.4641 43.9546 93.2285 44.0337C94.5104 44.176 95.5694 45.0063 95.7764 46.0658C95.9038 46.7063 95.9993 47.4179 95.9993 47.9952C95.9993 48.5724 95.9038 49.284 95.7764 49.9245C95.5773 50.9761 94.5104 51.8064 93.2285 51.9566C92.4561 52.0436 91.6122 52.1227 90.9194 52.1385C90.2984 52.1543 89.5499 52.1385 88.8493 52.0989Z" fill="#387F5C"/>
</svg>
