<svg width="96" height="96" viewBox="0 0 96 96" fill="none" xmlns="http://www.w3.org/2000/svg">
<path d="M54.0596 35.0346C54.1703 33.6492 55.2378 32.5823 56.5978 32.5186C57.2699 32.4867 57.9894 32.4708 58.6141 32.4867C59.2388 32.5026 59.9662 32.5584 60.6383 32.6221C61.9984 32.7574 63.1291 33.8562 63.2872 35.2257C63.3663 35.9184 63.4375 36.6589 63.4533 37.272C63.4691 37.9567 63.4296 38.7848 63.3742 39.5412C63.2793 40.7912 62.3384 41.7944 61.0811 41.9616C60.3142 42.0652 59.4681 42.1448 58.7802 42.1368C58.0843 42.1368 57.2383 42.0333 56.4713 41.9139C55.2062 41.7228 54.2494 40.6877 54.1229 39.4138C54.0438 38.6494 53.9806 37.7975 53.9727 37.1048C53.9727 36.4837 54.0043 35.7353 54.0596 35.0346Z" fill="#C9B3F4"/>
<path d="M54.1078 56.5404C54.2422 55.1549 55.3492 54.0721 56.733 53.9686C57.413 53.9208 58.1484 53.873 58.7888 53.873C59.4293 53.873 60.1568 53.8969 60.8368 53.9288C62.2205 54.0084 63.3117 55.0514 63.4066 56.413C63.454 57.1057 63.4857 57.8382 63.4699 58.4513C63.4541 59.136 63.367 59.9641 63.2801 60.7284C63.1219 61.9865 62.1494 63.0374 60.9001 63.2524C60.141 63.3878 59.3028 63.4993 58.6228 63.5152C57.9428 63.5311 57.1046 63.4594 56.3535 63.3639C55.12 63.2046 54.1948 62.1855 54.0841 60.9116C54.0208 60.1472 53.9655 59.3032 53.9734 58.6105C53.9734 57.9895 54.0367 57.241 54.0999 56.5404H54.1078Z" fill="#C9B3F4"/>
<path d="M0.134436 46.1506C0.276765 44.9882 1.42328 44.0566 2.80703 43.9292C3.48704 43.8655 4.2224 43.8177 4.86288 43.7938C5.50335 43.7779 6.2308 43.7859 6.91081 43.8018C8.28665 43.8416 9.36201 44.7732 9.47271 46.0153C9.52806 46.6443 9.56761 47.3131 9.56761 47.8705C9.56761 48.4915 9.51226 49.2479 9.449 49.9326C9.34621 51.0712 8.41318 51.9709 7.16386 52.0983C6.39686 52.1779 5.5508 52.2337 4.86288 52.2098C4.16705 52.1859 3.321 52.0824 2.54611 51.963C1.28097 51.7639 0.292556 50.8722 0.150227 49.8052C0.0632492 49.1603 0 48.4517 0 47.8784C0 47.3609 0.0553575 46.7319 0.126522 46.1427L0.134436 46.1506Z" fill="#C9B3F4"/>
<path d="M64.9308 45.8224C65.0494 44.4609 66.1406 43.4179 67.5244 43.3462C68.2044 43.3143 68.9397 43.2905 69.5802 43.2984C70.2207 43.3064 70.9481 43.3542 71.6361 43.4099C73.0198 43.5214 74.1426 44.5724 74.2849 45.8941C74.3561 46.5629 74.4035 47.2716 74.4035 47.8687C74.4035 48.5296 74.3403 49.3337 74.2612 50.0662C74.1268 51.2844 73.1542 52.2797 71.897 52.4788C71.13 52.5982 70.276 52.7017 69.5881 52.7097C68.8923 52.7176 68.0462 52.646 67.2792 52.5425C66.022 52.3832 65.0811 51.38 64.9625 50.1299C64.8913 49.3735 64.8359 48.5455 64.8359 47.8687C64.8359 47.2556 64.8834 46.5231 64.9387 45.8384L64.9308 45.8224Z" fill="#C9B3F4"/>
<path d="M86.5325 46.023C86.6432 44.7809 87.7185 43.8493 89.0944 43.8095C89.7744 43.7856 90.5098 43.7776 91.1423 43.8015C91.7828 43.8175 92.5182 43.8732 93.1982 43.9369C94.5819 44.0643 95.7284 45.0038 95.8708 46.1583C95.9419 46.7475 95.9973 47.3686 95.9973 47.8941C95.9973 48.4753 95.934 49.176 95.8471 49.8209C95.7047 50.8878 94.7163 51.7796 93.4512 51.9786C92.6842 52.098 91.8302 52.2016 91.1344 52.2254C90.4386 52.2493 89.5925 52.1936 88.8334 52.114C87.5762 51.9866 86.6511 51.0948 86.5483 49.9483C86.485 49.2635 86.4297 48.5071 86.4297 47.8861C86.4297 47.3287 86.4771 46.6599 86.5245 46.0309L86.5325 46.023Z" fill="#C9B3F4"/>
<path d="M44.0257 2.71509C44.1759 1.32172 45.1327 0.207031 46.2871 0.0955611C46.8564 0.0398262 47.4732 0 48.003 0C48.5328 0 49.1495 0.0398262 49.7188 0.0955611C50.8733 0.207031 51.83 1.32172 51.9803 2.71509C52.0593 3.42372 52.1226 4.17217 52.1384 4.79322C52.1621 5.48592 52.1384 6.3299 52.0909 7.09426C52.0198 8.3682 51.1975 9.37141 50.0668 9.53861C49.3788 9.64212 48.6197 9.72974 48.003 9.72974C47.3862 9.72974 46.6192 9.64212 45.9392 9.53861C44.8085 9.37141 43.9862 8.3682 43.915 7.09426C43.8755 6.3299 43.8438 5.48592 43.8675 4.79322C43.8834 4.17217 43.9545 3.42372 44.0257 2.71509Z" fill="#C9B3F4"/>
<path d="M21.7357 45.8941C21.8701 44.5724 23.0008 43.5294 24.3846 43.4099C25.0646 43.3542 25.7999 43.3064 26.4404 43.2984C27.0809 43.2905 27.8084 43.3143 28.4963 43.3462C29.88 43.4179 30.9712 44.4609 31.0898 45.8224C31.1452 46.5151 31.1926 47.2476 31.1926 47.8528C31.1926 48.5296 31.1373 49.3656 31.0661 50.114C30.9475 51.3641 30.0066 52.3673 28.7493 52.5266C27.9823 52.6221 27.1363 52.7017 26.4404 52.6937C25.7446 52.6858 24.8986 52.5823 24.1316 52.4628C22.8664 52.2638 21.8938 51.2685 21.7673 50.0503C21.6882 49.3178 21.625 48.5136 21.625 47.8528C21.625 47.2636 21.6803 46.547 21.7436 45.8782L21.7357 45.8941Z" fill="#C9B3F4"/>
<path d="M43.528 24.2536C43.6704 22.8602 44.7457 21.7614 46.0583 21.6579C46.7067 21.6101 47.4025 21.5703 48.0114 21.5703C48.6202 21.5703 49.316 21.6101 49.9644 21.6579C51.277 21.7614 52.3524 22.8602 52.4947 24.2536C52.5658 24.9542 52.6291 25.7106 52.637 26.3317C52.6449 27.0244 52.5975 27.8684 52.5421 28.6407C52.4393 29.9146 51.5221 30.9338 50.2807 31.109C49.5295 31.2125 48.6993 31.308 48.0192 31.308C47.3392 31.308 46.509 31.2204 45.7578 31.109C44.5243 30.9338 43.5992 29.9146 43.4964 28.6407C43.4331 27.8763 43.3857 27.0244 43.4015 26.3317C43.4094 25.7106 43.4727 24.9622 43.5439 24.2536H43.528Z" fill="#C9B3F4"/>
<path d="M32.7192 35.2257C32.8852 33.8562 34.008 32.7574 35.368 32.6221C36.0401 32.5584 36.7597 32.5026 37.3923 32.4867C38.0169 32.4708 38.7365 32.4867 39.4086 32.5186C40.7686 32.5823 41.8361 33.6492 41.9468 35.0346C42.0021 35.7353 42.0417 36.4837 42.0338 37.1048C42.0338 37.7975 41.9626 38.6414 41.8835 39.4138C41.757 40.6877 40.7923 41.7228 39.5351 41.9139C38.7681 42.0333 37.922 42.1289 37.2262 42.1368C36.5304 42.1368 35.6844 42.0572 34.9253 41.9616C33.668 41.7944 32.7271 40.7912 32.6322 39.5412C32.5769 38.7848 32.5294 37.9567 32.5531 37.272C32.569 36.6589 32.6401 35.9184 32.7192 35.2257Z" fill="#C9B3F4"/>
<path d="M32.6065 56.4125C32.7014 55.051 33.7926 54 35.1763 53.9283C35.8563 53.8885 36.5917 53.8647 37.2243 53.8726C37.8647 53.8726 38.5922 53.9204 39.2801 53.9681C40.6639 54.0717 41.7709 55.1545 41.9053 56.5399C41.9765 57.2406 42.0318 57.989 42.0318 58.6101C42.0318 59.3028 41.9844 60.1468 41.9211 60.9111C41.8183 62.1851 40.8932 63.2042 39.6518 63.3635C38.9006 63.459 38.0624 63.5307 37.3824 63.5148C36.7024 63.4988 35.8643 63.3794 35.1052 63.252C33.8559 63.037 32.8833 61.986 32.7251 60.728C32.6302 59.9716 32.5512 59.1356 32.5354 58.4508C32.5196 57.8378 32.5512 57.1052 32.5986 56.4125H32.6065Z" fill="#C9B3F4"/>
<path d="M43.4553 67.3207C43.5581 65.9353 44.6334 64.8684 45.9856 64.7808C46.6577 64.741 47.3772 64.7012 48.0019 64.7012C48.6265 64.7012 49.3461 64.733 50.0182 64.7808C51.3782 64.8684 52.4457 65.9353 52.5485 67.3207C52.6038 68.0214 52.6354 68.7698 52.6275 69.3909C52.6196 70.0836 52.5484 70.9275 52.4615 71.6999C52.3271 72.9818 51.394 74.0248 50.2 74.2239C49.4726 74.3433 48.6582 74.4388 48.0019 74.4388C47.3456 74.4388 46.539 74.3433 45.8037 74.2239C44.6018 74.0328 43.6767 72.9818 43.5423 71.6999C43.4632 70.9275 43.392 70.0836 43.3762 69.3909C43.3683 68.7698 43.3999 68.0214 43.4553 67.3207Z" fill="#C9B3F4"/>
<path d="M43.8972 88.8512C43.9683 87.4658 44.9251 86.4148 46.1665 86.3431C46.7753 86.3033 47.4316 86.2715 48.0009 86.2715C48.5703 86.2715 49.2265 86.3033 49.8354 86.3431C51.0768 86.4228 52.0336 87.4658 52.1047 88.8512C52.1443 89.5519 52.1601 90.3003 52.1443 90.9214C52.1205 91.6141 52.0415 92.466 51.9624 93.2304C51.8201 94.5123 50.9898 95.5712 49.9303 95.7783C49.2898 95.9057 48.5782 96.0012 48.0009 96.0012C47.4237 96.0012 46.7121 95.9057 46.0716 95.7783C45.02 95.5792 44.1897 94.5123 44.0395 93.2304C43.9525 92.4581 43.8734 91.6141 43.8576 90.9214C43.8418 90.3003 43.8576 89.5519 43.8972 88.8512Z" fill="#C9B3F4"/>
</svg>
