<svg width="15" height="16" viewBox="0 0 15 16" fill="none" xmlns="http://www.w3.org/2000/svg">
<path fill-rule="evenodd" clip-rule="evenodd" d="M2.14645 11.6464C1.95118 11.8417 1.95118 12.1583 2.14645 12.3536C2.34171 12.5488 2.65829 12.5488 2.85355 12.3536L6.85355 8.35355C7.04882 8.15829 7.04882 7.84171 6.85355 7.64645L2.85355 3.64645C2.65829 3.45118 2.34171 3.45118 2.14645 3.64645C1.95118 3.84171 1.95118 4.15829 2.14645 4.35355L5.79289 8L2.14645 11.6464ZM8.14645 11.6464C7.95118 11.8417 7.95118 12.1583 8.14645 12.3536C8.34171 12.5488 8.65829 12.5488 8.85355 12.3536L12.8536 8.35355C13.0488 8.15829 13.0488 7.84171 12.8536 7.64645L8.85355 3.64645C8.65829 3.45118 8.34171 3.45118 8.14645 3.64645C7.95118 3.84171 7.95118 4.15829 8.14645 4.35355L11.7929 8L8.14645 11.6464Z" fill="#387F5C"/>
</svg>
