<svg xmlns="http://www.w3.org/2000/svg" width="24" height="25" viewBox="0 0 24 25" fill="none">
  <g clip-path="url(#clip0_8951_50460)">
    <path fill-rule="evenodd" clip-rule="evenodd" d="M11.9974 0.675781C5.5926 0.675781 0.398438 5.86927 0.398438 12.2762C0.398438 17.4006 3.72188 21.7487 8.3314 23.2833C8.91178 23.3894 9.12327 23.0313 9.12327 22.7236C9.12327 22.4479 9.1133 21.7188 9.10761 20.751C5.88101 21.4518 5.20023 19.1958 5.20023 19.1958C4.67255 17.8556 3.91202 17.4988 3.91202 17.4988C2.85881 16.7796 3.99178 16.7939 3.99178 16.7939C5.15609 16.8758 5.7685 17.9895 5.7685 17.9895C6.80321 19.7619 8.4838 19.2499 9.14465 18.9529C9.25004 18.2038 9.54983 17.6924 9.88097 17.4027C7.30524 17.1092 4.59708 16.1145 4.59708 11.6694C4.59708 10.4026 5.04927 9.36789 5.79129 8.55679C5.67165 8.2634 5.27359 7.08412 5.90522 5.48684C5.90522 5.48684 6.87868 5.17492 9.09479 6.67535C10.0198 6.41828 11.0125 6.2901 11.9988 6.28511C12.9844 6.2901 13.9763 6.41828 14.9028 6.67535C17.1175 5.17492 18.0895 5.48684 18.0895 5.48684C18.7226 7.08412 18.3245 8.2634 18.2056 8.55679C18.949 9.36789 19.3976 10.4026 19.3976 11.6694C19.3976 16.1259 16.6852 17.1065 14.1017 17.3934C14.5175 17.7516 14.8886 18.4595 14.8886 19.5419C14.8886 21.0921 14.8743 22.3433 14.8743 22.7236C14.8743 23.034 15.0837 23.3951 15.6719 23.2819C20.2778 21.7444 23.5984 17.3998 23.5984 12.2762C23.5984 5.86927 18.4042 0.675781 11.9974 0.675781Z" fill="currentColor"/>
  </g>
  <defs>
    <clipPath id="clip0_8951_50460">
      <rect width="24" height="24" fill="white" transform="translate(0 0.275391)"/>
    </clipPath>
  </defs>
</svg>