<svg width="15" height="16" viewBox="0 0 15 16" fill="none" xmlns="http://www.w3.org/2000/svg">
<path fill-rule="evenodd" clip-rule="evenodd" d="M12.8535 11.6464C13.0488 11.8417 13.0488 12.1583 12.8535 12.3536C12.6583 12.5488 12.3417 12.5488 12.1464 12.3536L8.14645 8.35355C7.95118 8.15829 7.95118 7.84171 8.14645 7.64645L12.1464 3.64645C12.3417 3.45118 12.6583 3.45118 12.8535 3.64645C13.0488 3.84171 13.0488 4.15829 12.8535 4.35355L9.20711 8L12.8535 11.6464ZM6.85355 11.6464C7.04882 11.8417 7.04882 12.1583 6.85355 12.3536C6.65829 12.5488 6.34171 12.5488 6.14645 12.3536L2.1464 8.35355C1.9512 8.15829 1.9512 7.84171 2.1464 7.64645L6.14645 3.64645C6.34171 3.45118 6.65829 3.45118 6.85355 3.64645C7.04882 3.84171 7.04882 4.15829 6.85355 4.35355L3.2071 8L6.85355 11.6464Z" fill="#387F5C"/>
</svg>
