<svg width="592" height="594" viewBox="0 0 592 594" fill="none" xmlns="http://www.w3.org/2000/svg">
<path d="M22.8259 226.564C28.7161 226.564 34.6063 226.564 40.6017 225.933C47.8593 225.091 55.117 223.724 62.2695 222.462C76.5743 219.201 86.146 206.789 89.1963 192.905C90.9844 183.965 92.6673 174.919 93.5087 165.873C94.245 157.353 94.3501 148.728 94.2449 140.209C94.0346 128.533 86.1459 118.436 73.6291 119.488C66.8974 120.224 60.1658 120.96 53.5392 122.538C47.8594 123.905 42.2847 125.799 36.71 127.797C24.1932 132.425 15.989 146.204 12.8335 158.51C11.2558 165.347 9.67804 172.289 8.62621 179.231C7.57438 186.279 6.62771 193.431 6.1018 200.584C5.15515 211.628 9.46757 226.038 22.7206 226.459L22.8259 226.564Z" fill="#D9D9D9"/>
<path d="M218.043 129.795C216.255 114.859 203.738 105.708 189.328 104.972C180.388 104.761 171.447 104.972 162.612 105.708C154.723 106.55 146.834 107.812 139.051 109.39C123.484 112.755 110.967 125.588 108.022 141.26C106.655 149.043 105.497 156.827 104.761 164.716C104.025 172.71 103.815 180.704 103.709 188.803C103.394 204.58 115.069 217.833 130.847 218.99C139.051 219.411 147.255 219.621 155.354 219.411C164.926 219.095 174.392 217.938 183.859 216.676C199.847 214.257 213.31 202.056 216.15 185.963C217.833 176.496 219.2 166.925 219.516 157.248C219.726 148.097 218.99 138.841 217.938 129.795H218.043Z" fill="white"/>
<path d="M200.583 6.73242C192.694 7.25834 184.7 7.99458 176.916 9.25677C169.869 10.3086 162.927 11.9915 156.09 13.7796C143.784 16.9351 130.531 25.6653 126.113 38.0769C124.115 43.5464 122.432 49.2263 121.17 54.9062C119.802 60.7964 118.855 66.897 118.119 72.8924C116.331 86.461 128.322 94.8756 140.944 94.2445C148.622 94.0341 156.301 93.4031 163.979 92.772C172.919 91.8253 181.755 90.4579 190.695 89.0906C204.264 86.8817 218.358 77.3101 221.724 63.3208C223.512 56.0632 225.09 48.8056 225.721 41.4428C226.247 34.9214 225.932 28.4 225.301 21.8787C224.144 9.99305 210.68 6.41682 200.688 6.94274L200.583 6.73242Z" fill="#D9D9D9"/>
<path d="M266.217 215.414C275.263 216.151 284.414 216.782 293.459 216.782C294.196 216.782 294.932 216.782 295.668 216.782C296.405 216.782 297.141 216.782 297.877 216.782C307.028 216.782 316.074 216.256 325.119 215.414C342.79 213.626 356.885 200.163 358.042 182.282C358.357 175.866 358.568 169.449 358.568 163.033C358.568 156.617 358.568 158.931 358.568 156.827C358.357 148.623 357.726 140.314 356.885 132.109C355.097 123.695 351.415 116.542 345.841 111.178C340.266 105.814 333.008 102.343 324.173 101.396C315.653 100.555 307.238 99.9235 298.719 99.8184C297.667 99.8184 296.615 99.8184 295.563 99.8184C294.511 99.8184 293.459 99.8184 292.408 99.8184C283.888 99.8184 275.473 100.555 266.953 101.396C258.118 102.343 250.861 105.814 245.286 111.178C239.816 116.542 236.03 123.695 234.242 132.109C233.4 140.314 232.769 148.518 232.559 156.827C232.559 158.931 232.559 161.035 232.559 163.033C232.559 169.449 232.769 175.866 233.085 182.282C234.242 200.163 248.441 213.626 266.007 215.414H266.217Z" fill="#2775CA"/>
<path d="M267.376 85.5136C275.686 86.0396 284.1 86.4603 292.515 86.4603C293.567 86.4603 294.724 86.4603 295.776 86.4603C296.827 86.4603 297.984 86.4603 299.036 86.4603C307.346 86.4603 315.76 86.0396 324.175 85.5136C338.269 84.567 353.731 75.4161 354.047 59.7438C354.047 57.2195 354.152 54.5899 354.152 52.0655C354.152 48.1737 354.152 44.3872 353.836 40.4954C353.416 34.5 352.574 28.6097 351.628 22.7195C350.365 15.9878 346.053 10.939 340.478 7.3628C334.904 3.78658 328.067 1.78812 321.966 1.26221C314.603 0.63111 307.24 0.105183 299.878 0C298.51 0 297.143 0 295.881 0C294.513 0 293.146 0 291.884 0C284.521 0 277.158 0.525927 269.795 1.26221C263.59 1.78812 256.858 3.78658 251.283 7.3628C245.708 10.939 241.396 15.9878 240.134 22.7195C239.082 28.6097 238.346 34.5 237.925 40.4954C237.715 44.3872 237.609 48.1737 237.609 52.0655C237.609 55.9573 237.609 57.2195 237.715 59.7438C238.03 75.4161 253.597 84.567 267.586 85.5136H267.376Z" fill="#D9D9D9"/>
<path d="M591.55 295.668C591.55 288.621 591.234 281.469 590.709 274.421C590.183 268.11 588.395 261.168 585.029 255.278C581.663 249.388 576.614 244.76 569.777 243.287C563.887 242.13 557.892 240.973 551.896 240.447C544.639 239.921 537.381 240.132 530.228 240.447C515.608 241.394 507.299 255.068 505.616 268.216C504.564 277.682 503.722 287.148 503.617 296.615C503.617 306.081 504.564 315.653 505.616 325.014C507.299 338.267 515.503 351.941 530.228 352.783C537.486 353.203 544.744 353.309 551.896 352.783C557.892 352.257 563.887 351.205 569.777 349.943C576.614 348.47 581.558 343.842 585.029 337.952C588.395 332.167 590.183 325.119 590.709 318.809C591.234 311.761 591.55 304.609 591.55 297.562C591.55 290.514 591.55 296.825 591.55 296.405C591.55 295.984 591.55 295.668 591.55 295.248V295.668Z" fill="#D9D9D9"/>
<path d="M537.799 122.537C531.172 121.065 524.441 120.329 517.709 119.487C505.297 118.33 497.303 128.428 497.093 140.208C496.988 148.728 497.093 157.353 497.829 165.873C498.671 175.024 500.459 183.964 502.142 192.905C505.192 206.789 514.764 219.2 529.069 222.461C536.326 223.723 543.479 225.091 550.736 225.932C556.627 226.458 562.517 226.563 568.512 226.563C581.765 226.142 586.078 211.732 585.131 200.688C584.605 193.536 583.659 186.383 582.607 179.336C581.555 172.394 579.977 165.452 578.4 158.615C575.244 146.309 567.04 132.53 554.523 127.902C548.948 125.903 543.374 124.01 537.694 122.643L537.799 122.537Z" fill="#D9D9D9"/>
<path d="M375.292 185.963C378.132 202.056 391.596 214.257 407.583 216.676C417.05 217.938 426.516 219.095 436.088 219.411C444.292 219.621 452.496 219.411 460.595 218.99C476.373 217.833 488.048 204.58 487.733 188.803C487.733 180.809 487.417 172.71 486.681 164.716C486.05 156.827 484.787 149.043 483.42 141.26C480.475 125.588 467.958 112.65 452.391 109.39C444.608 107.812 436.719 106.55 428.83 105.708C419.89 104.972 410.949 104.761 402.114 104.972C387.704 105.708 375.187 114.859 373.399 129.795C372.347 138.946 371.611 148.097 371.821 157.248C372.137 166.925 373.504 176.496 375.187 185.963H375.292Z" fill="white"/>
<path d="M369.821 63.1105C373.187 77.0998 387.282 86.6715 400.85 88.8803C409.686 90.2477 418.626 91.7203 427.567 92.5617C435.245 93.1928 442.923 93.8239 450.602 94.0343C463.224 94.6654 475.109 86.2507 473.426 72.6821C472.585 66.6867 471.744 60.6913 470.376 54.6959C469.114 49.016 467.326 43.3361 465.433 37.8666C461.015 25.4551 447.657 16.7249 435.455 13.5694C428.619 11.7813 421.677 10.0983 414.629 9.04652C406.846 7.78432 398.852 7.04808 390.963 6.52217C380.971 5.99625 367.507 9.57248 366.35 21.4581C365.719 27.9795 365.404 34.5008 365.93 41.0221C366.561 48.3849 368.244 55.7477 369.927 62.9001L369.821 63.1105Z" fill="#D9D9D9"/>
<path d="M348.471 245.918C342.686 239.712 334.902 235.505 325.33 234.558C316.179 233.717 307.134 233.086 297.878 232.98C297.141 232.98 296.51 232.98 295.774 232.98C295.038 232.98 294.407 232.98 293.67 232.98C284.519 232.98 275.368 233.717 266.218 234.558C256.646 235.61 248.757 239.817 243.077 245.918C237.292 252.124 233.611 260.328 232.349 269.479C231.718 278.525 231.297 287.676 231.297 296.721C231.297 305.767 231.718 314.918 232.349 323.964C233.611 333.115 237.292 341.319 243.077 347.525C248.862 353.73 256.646 357.938 266.218 358.884C275.368 359.726 284.414 360.357 293.67 360.462C294.407 360.462 295.038 360.462 295.774 360.462C296.51 360.462 297.141 360.462 297.878 360.462C307.029 360.462 316.179 359.726 325.33 358.884C334.902 357.832 342.791 353.625 348.471 347.525C354.256 341.319 357.937 333.115 359.199 323.964C359.83 314.918 360.251 305.767 360.251 296.721C360.251 287.676 359.83 278.525 359.199 269.479C357.937 260.328 354.256 252.124 348.471 245.918Z" fill="#387F5C"/>
<path d="M568.618 367.088C562.727 367.088 556.837 367.088 550.842 367.719C543.584 368.56 536.327 369.928 529.174 371.19C514.869 374.451 505.298 386.862 502.247 400.746C500.459 409.687 498.776 418.733 497.935 427.778C497.199 436.298 497.093 444.923 497.199 453.443C497.409 465.118 505.298 475.216 517.814 474.164C524.546 473.428 531.278 472.691 537.904 471.114C543.584 469.746 549.159 467.853 554.734 465.855C567.25 461.227 575.455 447.448 578.61 435.141C580.188 428.304 581.766 421.362 582.817 414.42C583.869 407.373 584.816 400.22 585.342 393.068C586.288 382.024 581.976 367.614 568.723 367.193L568.618 367.088Z" fill="#D9D9D9"/>
<path d="M492.152 296.826C492.152 288.306 491.731 279.786 491.1 271.267C490.364 262.957 487.103 255.068 482.054 248.968C476.9 242.867 469.853 238.555 461.333 237.292C453.129 236.241 444.819 235.399 436.615 235.189C427.149 234.873 417.577 235.504 408.111 236.241C391.702 237.924 378.975 250.125 376.661 266.428C375.925 271.477 375.293 276.631 374.873 281.785C374.452 286.834 374.136 291.882 374.031 296.931C374.031 301.98 374.347 307.029 374.873 312.077C375.399 317.231 376.03 322.28 376.661 327.434C379.08 343.738 391.807 355.939 408.111 357.622C417.577 358.358 427.043 358.884 436.615 358.673C444.924 358.463 453.129 357.516 461.333 356.57C469.853 355.308 477.005 350.89 482.054 344.895C487.208 338.794 490.364 331.01 491.1 322.596C491.731 314.076 492.046 305.556 492.152 297.036V296.826Z" fill="#0052FF"/>
<path d="M373.505 463.749C375.293 478.685 387.809 487.836 402.219 488.572C411.16 488.783 420.101 488.572 428.936 487.836C436.825 486.995 444.713 485.732 452.497 484.155C468.064 480.789 480.581 467.956 483.526 452.284C484.893 444.501 486.05 436.717 486.787 428.828C487.523 420.834 487.733 412.841 487.838 404.742C488.154 388.964 476.479 375.711 460.701 374.554C452.497 374.133 444.293 373.923 436.194 374.133C426.622 374.449 417.155 375.606 407.689 376.868C391.701 379.287 378.238 391.489 375.398 407.582C373.715 417.048 372.348 426.62 372.032 436.296C371.822 445.447 372.558 454.703 373.61 463.749H373.505Z" fill="white"/>
<path d="M450.605 499.408C442.927 499.618 435.249 500.249 427.57 500.88C418.63 501.827 409.794 503.194 400.854 504.562C387.285 506.77 373.191 516.342 369.825 530.331C368.037 537.589 366.459 544.847 365.828 552.209C365.302 558.731 365.618 565.252 366.249 571.773C367.406 583.659 380.869 587.235 390.861 586.709C398.75 586.184 406.744 585.447 414.528 584.185C421.575 583.133 428.517 581.45 435.354 579.662C447.66 576.507 460.913 567.776 465.331 555.365C467.329 549.895 469.012 544.216 470.275 538.536C471.642 532.645 472.589 526.545 473.325 520.549C475.113 506.981 463.122 498.566 450.5 499.197L450.605 499.408Z" fill="#D9D9D9"/>
<path d="M325.226 378.133C316.18 377.397 307.029 376.766 297.983 376.766C297.247 376.766 296.511 376.766 295.774 376.766C295.038 376.766 294.302 376.766 293.565 376.766C284.415 376.766 275.369 377.292 266.323 378.133C248.652 379.921 234.558 393.385 233.401 411.266C233.085 417.682 232.875 424.098 232.875 430.514C232.875 436.93 232.875 434.616 232.875 436.72C233.085 444.924 233.716 453.234 234.558 461.438C236.346 469.852 240.027 477.005 245.602 482.369C251.177 487.734 258.434 491.205 267.27 492.151C275.79 492.993 284.204 493.624 292.724 493.729C293.776 493.729 294.828 493.729 295.88 493.729C296.931 493.729 297.983 493.729 299.035 493.729C307.555 493.729 315.969 492.993 324.489 492.151C333.325 491.205 340.582 487.734 346.157 482.369C351.626 477.005 355.413 469.852 357.201 461.438C358.043 453.234 358.674 445.029 358.884 436.72C358.884 434.616 358.884 432.513 358.884 430.514C358.884 424.098 358.674 417.682 358.358 411.266C357.201 393.385 343.001 379.921 325.436 378.133H325.226Z" fill="#9945FF"/>
<path d="M324.069 508.033C315.759 507.507 307.345 507.086 298.93 507.086C297.878 507.086 296.721 507.086 295.669 507.086C294.618 507.086 293.461 507.086 292.409 507.086C284.099 507.086 275.685 507.507 267.27 508.033C253.176 508.979 237.714 518.13 237.398 533.802C237.398 536.327 237.293 538.956 237.293 541.481C237.293 545.373 237.293 549.159 237.609 553.051C238.029 559.046 238.871 564.936 239.817 570.827C241.08 577.558 245.392 582.607 250.967 586.184C256.541 589.76 263.378 591.758 269.479 592.284C276.842 592.915 284.205 593.441 291.567 593.546C292.935 593.546 294.302 593.546 295.564 593.546C296.932 593.546 298.299 593.546 299.561 593.546C306.924 593.546 314.287 593.02 321.65 592.284C327.855 591.758 334.587 589.76 340.162 586.184C345.737 582.607 350.049 577.558 351.311 570.827C352.363 564.936 353.099 559.046 353.52 553.051C353.73 549.159 353.836 545.373 353.836 541.481C353.836 537.589 353.836 536.327 353.73 533.802C353.415 518.13 337.848 508.979 323.858 508.033H324.069Z" fill="#D9D9D9"/>
<path d="M21.7729 350.26C27.6632 351.417 33.6586 352.574 39.654 353.099C46.9116 353.625 54.1692 353.415 61.3216 353.099C75.9421 352.153 84.2515 338.479 85.9345 325.331C86.9863 315.865 87.8276 306.398 87.9328 296.932C87.9328 287.465 86.9863 277.894 85.9345 268.533C84.2515 255.28 76.0472 241.606 61.3216 240.764C54.064 240.344 46.8064 240.238 39.654 240.764C33.6586 241.29 27.6632 242.342 21.7729 243.604C14.936 245.077 9.99245 249.705 6.52141 255.595C3.15556 261.38 1.36743 268.427 0.841514 274.738C0.3156 281.786 0 288.938 0 295.985C0 303.033 0 296.722 0 297.142C0 297.563 0 297.879 0 298.299C0 305.346 0.3156 312.499 0.841514 319.546C1.36743 325.857 3.15556 332.799 6.52141 338.689C9.88726 344.58 14.936 349.208 21.7729 350.68V350.26Z" fill="#D9D9D9"/>
<path d="M53.645 471.01C60.2715 472.483 67.0032 473.219 73.7349 474.06C86.1465 475.217 94.1405 465.12 94.3508 453.339C94.456 444.82 94.3508 436.195 93.6145 427.675C92.773 418.524 90.9849 409.583 89.302 400.643C86.2517 386.759 76.6801 374.347 62.3752 371.087C55.1176 369.824 47.9652 368.457 40.7076 367.615C34.8174 367.09 28.9271 366.984 22.9317 366.984C9.67863 367.405 5.36609 381.815 6.31273 392.859C6.83865 400.012 7.78532 407.164 8.83715 414.212C9.88897 421.154 11.4667 428.096 13.0445 434.932C16.1999 447.239 24.4042 461.018 36.9209 465.646C42.4956 467.644 48.0703 469.538 53.7502 470.905L53.645 471.01Z" fill="#D9D9D9"/>
<path d="M130.217 356.359C138.421 357.411 146.731 358.253 154.935 358.463C164.401 358.779 173.973 358.148 183.44 357.411C199.848 355.728 212.575 343.527 214.889 327.224C215.626 322.175 216.257 317.021 216.677 311.867C217.098 306.818 217.414 301.769 217.519 296.721C217.519 291.672 217.203 286.623 216.677 281.574C216.151 276.42 215.52 271.372 214.889 266.218C212.47 249.914 199.743 237.713 183.44 236.03C173.973 235.294 164.507 234.768 154.935 234.978C146.626 235.189 138.421 236.135 130.217 237.082C121.697 238.344 114.545 242.762 109.496 248.757C104.342 254.858 101.187 262.641 100.45 271.056C99.8192 279.576 99.5036 288.096 99.3984 296.616C99.3984 305.135 99.8192 313.655 100.45 322.175C101.187 330.484 104.447 338.373 109.496 344.474C114.65 350.574 121.697 354.887 130.217 356.149V356.359Z" fill="#F7931A"/>
<path d="M107.917 452.286C110.862 467.958 123.379 480.896 138.946 484.157C146.729 485.734 154.618 486.997 162.507 487.838C171.447 488.574 180.388 488.785 189.223 488.574C203.633 487.838 216.15 478.687 217.938 463.751C218.99 454.6 219.726 445.449 219.516 436.298C219.2 426.622 217.833 417.05 216.15 407.583C213.31 391.49 199.847 379.289 183.859 376.87C174.392 375.608 164.926 374.451 155.354 374.135C147.15 373.925 138.946 374.135 130.847 374.556C115.069 375.713 103.394 388.966 103.709 404.744C103.709 412.737 104.025 420.836 104.761 428.83C105.392 436.719 106.655 444.503 108.022 452.286H107.917Z" fill="white"/>
<path d="M221.62 530.437C218.254 516.448 204.16 506.876 190.591 504.668C181.756 503.3 172.815 501.828 163.875 500.986C156.197 500.355 148.518 499.724 140.84 499.514C128.218 498.883 116.332 507.297 118.015 520.866C118.857 526.861 119.698 532.857 121.065 538.852C122.328 544.532 124.116 550.212 126.009 555.681C130.427 568.093 143.785 576.823 155.986 579.979C162.823 581.767 169.765 583.449 176.812 584.501C184.596 585.764 192.59 586.5 200.478 587.026C210.471 587.552 223.934 583.975 225.091 572.09C225.722 565.568 226.038 559.047 225.512 552.526C224.881 545.163 223.198 537.8 221.515 530.648L221.62 530.437Z" fill="#D9D9D9"/>
</svg>
