<svg width="32" height="33" viewBox="0 0 32 33" fill="none" xmlns="http://www.w3.org/2000/svg">
<path d="M1.23568 12.2553C1.55431 12.2553 1.87294 12.2553 2.19726 12.2212C2.58986 12.1757 2.98246 12.1017 3.36937 12.0334C4.14319 11.857 4.66096 11.1856 4.82597 10.4346C4.9227 9.95094 5.01373 9.46162 5.05925 8.97229C5.09908 8.51141 5.10477 8.04484 5.09908 7.58397C5.0877 6.95239 4.66096 6.40617 3.98387 6.46307C3.61972 6.5029 3.25557 6.54273 2.89711 6.62807C2.58986 6.70204 2.2883 6.80446 1.98674 6.91257C1.30964 7.16292 0.86584 7.90829 0.695145 8.574C0.609797 8.94384 0.524449 9.31937 0.467551 9.6949C0.410652 10.0761 0.359442 10.463 0.330993 10.8499C0.279785 11.4474 0.513064 12.2269 1.22998 12.2496L1.23568 12.2553Z" fill="#D9D9D9"/>
<path d="M11.7946 7.02082C11.6978 6.21286 11.0208 5.71784 10.2412 5.67801C9.75761 5.66663 9.27397 5.67801 8.79603 5.71784C8.36929 5.76336 7.94255 5.83164 7.52151 5.91698C6.67941 6.09906 6.00232 6.79322 5.843 7.64101C5.76903 8.06205 5.70644 8.4831 5.66661 8.90984C5.62678 9.34227 5.6154 9.7747 5.60971 10.2128C5.59264 11.0663 6.22422 11.7832 7.0777 11.8458C7.5215 11.8686 7.96531 11.8799 8.40343 11.8686C8.92121 11.8515 9.43329 11.7889 9.94538 11.7206C10.8102 11.5898 11.5385 10.9297 11.6922 10.0592C11.7832 9.5471 11.8572 9.02933 11.8742 8.50586C11.8856 8.01085 11.8458 7.51014 11.7889 7.02082H11.7946Z" fill="white"/>
<path d="M10.8494 0.364258C10.4226 0.392707 9.9902 0.432534 9.56915 0.500812C9.18793 0.55771 8.8124 0.648747 8.44256 0.745474C7.77684 0.91617 7.05992 1.38843 6.82095 2.05983C6.71284 2.3557 6.62181 2.66295 6.55353 2.97021C6.47956 3.28884 6.42835 3.61885 6.38852 3.94317C6.2918 4.67716 6.94044 5.13234 7.62322 5.0982C8.03858 5.08682 8.45394 5.05269 8.86929 5.01855C9.35293 4.96734 9.83088 4.89337 10.3145 4.8194C11.0485 4.69992 11.8109 4.18214 11.993 3.42539C12.0897 3.03279 12.1751 2.64019 12.2092 2.24191C12.2377 1.88914 12.2206 1.53636 12.1865 1.18359C12.1239 0.540641 11.3956 0.347186 10.8551 0.375635L10.8494 0.364258Z" fill="#D9D9D9"/>
<path d="M14.6027 8.46493C15.0334 8.48381 15.4691 8.5 15.8998 8.5C15.9349 8.5 15.9699 8.5 16.005 8.5C16.0401 8.5 16.0751 8.5 16.1102 8.5C16.5459 8.5 16.9766 8.48651 17.4073 8.46493C18.2487 8.41906 18.9199 8.07374 18.975 7.61511C18.99 7.45054 19 7.28597 19 7.1214C19 6.95683 19 7.01619 19 6.96223C18.99 6.7518 18.9599 6.53867 18.9199 6.32824C18.8347 6.11241 18.6594 5.92896 18.394 5.79137C18.1285 5.65378 17.783 5.56475 17.3623 5.54047C16.9566 5.51888 16.5559 5.5027 16.1503 5.5C16.1002 5.5 16.0501 5.5 16 5.5C15.9499 5.5 15.8998 5.5 15.8497 5.5C15.4441 5.5 15.0434 5.51888 14.6377 5.54047C14.217 5.56475 13.8715 5.65378 13.606 5.79137C13.3456 5.92896 13.1653 6.11241 13.0801 6.32824C13.0401 6.53867 13.01 6.7491 13 6.96223C13 7.01619 13 7.07014 13 7.1214C13 7.28597 13.01 7.45054 13.025 7.61511C13.0801 8.07374 13.7563 8.41906 14.5927 8.46493H14.6027Z" fill="#2775CA"/>
<path d="M14.4657 4.62584C14.9152 4.65429 15.3704 4.67705 15.8256 4.67705C15.8825 4.67705 15.9451 4.67705 16.002 4.67705C16.0589 4.67705 16.1214 4.67705 16.1783 4.67705C16.6278 4.67705 17.083 4.65429 17.5382 4.62584C18.3007 4.57463 19.1371 4.07962 19.1541 3.23183C19.1541 3.09527 19.1598 2.95303 19.1598 2.81647C19.1598 2.60595 19.1598 2.40111 19.1427 2.19059C19.12 1.86627 19.0745 1.54764 19.0233 1.229C18.955 0.864855 18.7217 0.591744 18.4201 0.398289C18.1186 0.204834 17.7487 0.096728 17.4187 0.0682788C17.0204 0.0341398 16.6221 0.00568984 16.2239 0C16.1499 0 16.0759 0 16.0076 0C15.9337 0 15.8597 0 15.7914 0C15.3931 0 14.9948 0.0284499 14.5966 0.0682788C14.2609 0.096728 13.8967 0.204834 13.5951 0.398289C13.2936 0.591744 13.0603 0.864855 12.992 1.229C12.9351 1.54764 12.8953 1.86627 12.8725 2.19059C12.8612 2.40111 12.8555 2.60595 12.8555 2.81647C12.8555 3.027 12.8555 3.09527 12.8612 3.23183C12.8782 4.07962 13.7203 4.57463 14.4771 4.62584H14.4657Z" fill="#D9D9D9"/>
<path d="M31.9989 15.9928C31.9989 15.6116 31.9818 15.2247 31.9534 14.8434C31.9249 14.502 31.8282 14.1265 31.6461 13.8079C31.4641 13.4892 31.1909 13.2389 30.8211 13.1592C30.5025 13.0967 30.1781 13.0341 29.8538 13.0056C29.4612 12.9772 29.0686 12.9885 28.6817 13.0056C27.8908 13.0568 27.4413 13.7965 27.3503 14.5077C27.2934 15.0198 27.2479 15.5319 27.2422 16.044C27.2422 16.5561 27.2934 17.0738 27.3503 17.5802C27.4413 18.2972 27.8851 19.0368 28.6817 19.0824C29.0743 19.1051 29.4669 19.1108 29.8538 19.0824C30.1781 19.0539 30.5025 18.997 30.8211 18.9287C31.1909 18.8491 31.4584 18.5987 31.6461 18.2801C31.8282 17.9672 31.9249 17.5859 31.9534 17.2445C31.9818 16.8633 31.9989 16.4764 31.9989 16.0952C31.9989 15.714 31.9989 16.0554 31.9989 16.0326C31.9989 16.0099 31.9989 15.9928 31.9989 15.97V15.9928Z" fill="#D9D9D9"/>
<path d="M29.0945 6.62694C28.736 6.54728 28.3719 6.50745 28.0077 6.46193C27.3363 6.39934 26.9039 6.94557 26.8925 7.58283C26.8868 8.04371 26.8925 8.51028 26.9323 8.97115C26.9778 9.46617 27.0746 9.94981 27.1656 10.4334C27.3306 11.1845 27.8484 11.8559 28.6222 12.0323C29.0148 12.1006 29.4017 12.1745 29.7943 12.2201C30.1129 12.2485 30.4316 12.2542 30.7559 12.2542C31.4728 12.2314 31.7061 11.4519 31.6549 10.8545C31.6264 10.4676 31.5752 10.0807 31.5183 9.69945C31.4614 9.32392 31.3761 8.94839 31.2907 8.57855C31.12 7.91284 30.6762 7.16747 29.9992 6.91712C29.6976 6.80901 29.396 6.70659 29.0888 6.63262L29.0945 6.62694Z" fill="#D9D9D9"/>
<path d="M20.303 10.0592C20.4566 10.9297 21.1849 11.5898 22.0498 11.7206C22.5619 11.7889 23.0739 11.8515 23.5917 11.8686C24.0355 11.8799 24.4793 11.8686 24.9175 11.8458C25.7709 11.7832 26.4025 11.0663 26.3854 10.2128C26.3854 9.78039 26.3684 9.34227 26.3285 8.90984C26.2944 8.4831 26.2261 8.06205 26.1521 7.64101C25.9928 6.79322 25.3157 6.09337 24.4736 5.91698C24.0526 5.83164 23.6259 5.76336 23.1991 5.71784C22.7155 5.67801 22.2319 5.66663 21.7539 5.67801C20.9744 5.71784 20.2973 6.21286 20.2006 7.02082C20.1437 7.51583 20.1038 8.01085 20.1152 8.50586C20.1323 9.02933 20.2063 9.5471 20.2973 10.0592H20.303Z" fill="white"/>
<path d="M20.0061 3.41342C20.1882 4.17017 20.9506 4.68795 21.6846 4.80743C22.1626 4.8814 22.6462 4.96106 23.1299 5.00658C23.5452 5.04072 23.9606 5.07486 24.3759 5.08624C25.0587 5.12038 25.7017 4.66519 25.6106 3.9312C25.5651 3.60688 25.5196 3.28256 25.4456 2.95823C25.3774 2.65098 25.2806 2.34373 25.1782 2.04786C24.9392 1.37646 24.2166 0.904203 23.5566 0.733508C23.1868 0.636781 22.8112 0.54574 22.43 0.488842C22.009 0.420564 21.5765 0.380737 21.1498 0.352288C20.6093 0.323838 19.881 0.517294 19.8184 1.16025C19.7842 1.51302 19.7672 1.86579 19.7956 2.21856C19.8298 2.61684 19.9208 3.01513 20.0118 3.40204L20.0061 3.41342Z" fill="#D9D9D9"/>
<path d="M21.7042 10.551C21.078 9.87914 20.2354 9.42367 19.1992 9.32119C18.2085 9.2301 17.2293 9.16178 16.2273 9.15039C16.1476 9.15039 16.0792 9.15039 15.9995 9.15039C15.9198 9.15039 15.8515 9.15039 15.7718 9.15039C14.7812 9.15039 13.7905 9.2301 12.7999 9.32119C11.7637 9.43506 10.9097 9.89053 10.2948 10.551C9.66856 11.2228 9.27004 12.1109 9.1334 13.1015C9.06508 14.0808 9.01953 15.0714 9.01953 16.0507C9.01953 17.0299 9.06508 18.0206 9.1334 18.9998C9.27004 19.9905 9.66856 20.8786 10.2948 21.5504C10.9211 22.2222 11.7637 22.6777 12.7999 22.7802C13.7905 22.8713 14.7698 22.9396 15.7718 22.951C15.8515 22.951 15.9198 22.951 15.9995 22.951C16.0792 22.951 16.1476 22.951 16.2273 22.951C17.2179 22.951 18.2085 22.8713 19.1992 22.7802C20.2354 22.6663 21.0894 22.2109 21.7042 21.5504C22.3305 20.8786 22.729 19.9905 22.8657 18.9998C22.934 18.0206 22.9795 17.0299 22.9795 16.0507C22.9795 15.0714 22.934 14.0808 22.8657 13.1015C22.729 12.1109 22.3305 11.2228 21.7042 10.551Z" fill="#387F5C"/>
<path d="M30.7598 19.8574C30.4412 19.8574 30.1225 19.8574 29.7982 19.8916C29.4056 19.9371 29.013 20.011 28.6261 20.0793C27.8523 20.2557 27.3345 20.9271 27.1695 21.6782C27.0728 22.1618 26.9817 22.6511 26.9362 23.1405C26.8964 23.6013 26.8907 24.0679 26.8964 24.5288C26.9078 25.1604 27.3345 25.7066 28.0116 25.6497C28.3758 25.6099 28.7399 25.57 29.0984 25.4847C29.4056 25.4107 29.7072 25.3083 30.0087 25.2002C30.6858 24.9498 31.1296 24.2045 31.3003 23.5387C31.3857 23.1689 31.471 22.7934 31.5279 22.4179C31.5848 22.0366 31.636 21.6497 31.6645 21.2628C31.7157 20.6654 31.4824 19.8859 30.7655 19.8631L30.7598 19.8574Z" fill="#D9D9D9"/>
<path d="M26.5 15.9958C26.5 15.5822 26.4893 15.1687 26.4733 14.7552C26.4546 14.3519 26.3718 13.969 26.2435 13.6728C26.1126 13.3767 25.9337 13.1674 25.7173 13.1062C25.5089 13.0551 25.2979 13.0143 25.0895 13.004C24.8491 12.9887 24.606 13.0194 24.3655 13.0551C23.9488 13.1368 23.6256 13.729 23.5668 14.5203C23.5481 14.7654 23.5321 15.0156 23.5214 15.2657C23.5107 15.5108 23.5027 15.7558 23.5 16.0009C23.5 16.2459 23.508 16.491 23.5214 16.7361C23.5347 16.9862 23.5508 17.2313 23.5668 17.4814C23.6282 18.2728 23.9515 18.865 24.3655 18.9467C24.606 18.9824 24.8464 19.0079 25.0895 18.9977C25.3005 18.9875 25.5089 18.9416 25.7173 18.8956C25.9337 18.8344 26.1153 18.6199 26.2435 18.3289C26.3744 18.0328 26.4546 17.655 26.4733 17.2466C26.4893 16.8331 26.4973 16.4195 26.5 16.006V15.9958Z" fill="#0052FF"/>
<path d="M24.3777 27.0151C23.9624 27.0265 23.547 27.0606 23.1316 27.0948C22.648 27.146 22.1701 27.22 21.6864 27.2939C20.9524 27.4134 20.19 27.9312 20.0079 28.6879C19.9112 29.0805 19.8258 29.4731 19.7917 29.8714C19.7633 30.2242 19.7803 30.577 19.8145 30.9297C19.8771 31.5727 20.6054 31.7662 21.1459 31.7377C21.5726 31.7093 22.0051 31.6694 22.4261 31.6011C22.8073 31.5442 23.1829 31.4532 23.5527 31.3565C24.2184 31.1858 24.9353 30.7135 25.1743 30.0421C25.2824 29.7463 25.3734 29.439 25.4417 29.1318C25.5157 28.8131 25.5669 28.4831 25.6067 28.1588C25.7035 27.4248 25.0548 26.9696 24.372 27.0037L24.3777 27.0151Z" fill="#D9D9D9"/>
<path d="M17.3973 23.5351C16.9666 23.5162 16.5309 23.5 16.1002 23.5C16.0651 23.5 16.0301 23.5 15.995 23.5C15.9599 23.5 15.9249 23.5 15.8898 23.5C15.4541 23.5 15.0234 23.5135 14.5927 23.5351C13.7513 23.5809 13.0801 23.9263 13.025 24.3849C13.01 24.5495 13 24.714 13 24.8786C13 25.0432 13 24.9838 13 25.0378C13.01 25.2482 13.0401 25.4613 13.0801 25.6718C13.1653 25.8876 13.3406 26.071 13.606 26.2086C13.8715 26.3462 14.217 26.4353 14.6377 26.4595C15.0434 26.4811 15.4441 26.4973 15.8497 26.5C15.8998 26.5 15.9499 26.5 16 26.5C16.0501 26.5 16.1002 26.5 16.1503 26.5C16.5559 26.5 16.9566 26.4811 17.3623 26.4595C17.783 26.4353 18.1285 26.3462 18.394 26.2086C18.6544 26.071 18.8347 25.8876 18.9199 25.6718C18.9599 25.4613 18.99 25.2509 19 25.0378C19 24.9838 19 24.9299 19 24.8786C19 24.714 18.99 24.5495 18.975 24.3849C18.9199 23.9263 18.2437 23.5809 17.4073 23.5351H17.3973Z" fill="#9945FF"/>
<path d="M17.5301 27.4809C17.0806 27.4524 16.6254 27.4297 16.1702 27.4297C16.1133 27.4297 16.0507 27.4297 15.9938 27.4297C15.9369 27.4297 15.8743 27.4297 15.8174 27.4297C15.3679 27.4297 14.9127 27.4524 14.4575 27.4809C13.6951 27.5321 12.8587 28.0271 12.8416 28.8749C12.8416 29.0115 12.8359 29.1537 12.8359 29.2903C12.8359 29.5008 12.8359 29.7056 12.853 29.9162C12.8758 30.2405 12.9213 30.5591 12.9725 30.8777C13.0408 31.2419 13.2741 31.515 13.5756 31.7085C13.8772 31.9019 14.247 32.01 14.577 32.0385C14.9753 32.0726 15.3736 32.1011 15.7719 32.1067C15.8459 32.1067 15.9198 32.1067 15.9881 32.1067C16.0621 32.1067 16.1361 32.1067 16.2043 32.1067C16.6026 32.1067 17.0009 32.0783 17.3992 32.0385C17.7349 32.01 18.099 31.9019 18.4006 31.7085C18.7022 31.515 18.9354 31.2419 19.0037 30.8777C19.0606 30.5591 19.1005 30.2405 19.1232 29.9162C19.1346 29.7056 19.1403 29.5008 19.1403 29.2903C19.1403 29.0797 19.1403 29.0115 19.1346 28.8749C19.1175 28.0271 18.2754 27.5321 17.5187 27.4809H17.5301Z" fill="#D9D9D9"/>
<path d="M1.1778 18.9463C1.49643 19.0089 1.82075 19.0715 2.14507 19.0999C2.53767 19.1284 2.93027 19.117 3.31718 19.0999C4.10807 19.0487 4.55757 18.309 4.64861 17.5978C4.7055 17.0857 4.75102 16.5736 4.75671 16.0615C4.75671 15.5495 4.7055 15.0317 4.64861 14.5253C4.55757 13.8084 4.11376 13.0687 3.31718 13.0232C2.92458 13.0004 2.53198 12.9947 2.14507 13.0232C1.82075 13.0516 1.49643 13.1085 1.1778 13.1768C0.807962 13.2564 0.540539 13.5068 0.352774 13.8254C0.170699 14.1384 0.0739707 14.5196 0.0455215 14.861C0.0170723 15.2422 0 15.6291 0 16.0103C0 16.3916 0 16.0502 0 16.0729C0 16.0957 0 16.1128 0 16.1355C0 16.5167 0.0170723 16.9036 0.0455215 17.2849C0.0739707 17.6263 0.170699 18.0018 0.352774 18.3204C0.534849 18.639 0.807962 18.8894 1.1778 18.9691V18.9463Z" fill="#D9D9D9"/>
<path d="M2.90314 25.4788C3.2616 25.5585 3.62575 25.5983 3.9899 25.6438C4.6613 25.7064 5.09373 25.1602 5.10511 24.5229C5.1108 24.062 5.10511 23.5955 5.06528 23.1346C5.01976 22.6396 4.92304 22.1559 4.832 21.6723C4.66699 20.9213 4.14922 20.2499 3.3754 20.0735C2.9828 20.0052 2.59589 19.9312 2.20329 19.8857C1.88466 19.8573 1.56603 19.8516 1.24171 19.8516C0.52479 19.8743 0.291503 20.6538 0.342712 21.2513C0.371161 21.6382 0.422371 22.0251 0.479269 22.4063C0.536168 22.7818 0.621516 23.1574 0.706863 23.5272C0.877558 24.1929 1.32136 24.9383 1.99845 25.1886C2.30002 25.2967 2.60158 25.3992 2.90883 25.4731L2.90314 25.4788Z" fill="#D9D9D9"/>
<path d="M6.28273 18.8939C6.4911 18.9449 6.70214 18.9857 6.91051 18.996C7.15094 19.0113 7.39403 18.9806 7.63446 18.9449C8.0512 18.8632 8.37444 18.271 8.43321 17.4797C8.45191 17.2346 8.46794 16.9844 8.47863 16.7343C8.48931 16.4892 8.49733 16.2442 8.5 15.9991C8.5 15.7541 8.49198 15.509 8.47863 15.2639C8.46527 15.0138 8.44924 14.7687 8.43321 14.5186C8.37177 13.7272 8.04853 13.135 7.63446 13.0533C7.39403 13.0176 7.15361 12.9921 6.91051 13.0023C6.69947 13.0125 6.4911 13.0584 6.28273 13.1044C6.06634 13.1656 5.88468 13.3801 5.75646 13.6711C5.62556 13.9672 5.54541 14.345 5.52671 14.7534C5.51069 15.1669 5.50267 15.5805 5.5 15.994C5.5 16.4075 5.51069 16.8211 5.52671 17.2346C5.54541 17.6379 5.62823 18.0208 5.75646 18.3169C5.88735 18.6131 6.06634 18.8224 6.28273 18.8836V18.8939Z" fill="#F7931A"/>
<path d="M11.9881 28.6941C11.8061 27.9374 11.0436 27.4196 10.3096 27.3001C9.83169 27.2262 9.34805 27.1465 8.86441 27.101C8.44905 27.0668 8.03369 27.0327 7.61834 27.0213C6.93555 26.9872 6.2926 27.4424 6.38364 28.1764C6.42916 28.5007 6.47467 28.825 6.54864 29.1493C6.61692 29.4566 6.71365 29.7638 6.81607 30.0597C7.05504 30.7311 7.77765 31.2034 8.43767 31.3741C8.80751 31.4708 9.18304 31.5618 9.56426 31.6187C9.98531 31.687 10.4177 31.7268 10.8445 31.7553C11.385 31.7837 12.1133 31.5903 12.1759 30.9473C12.21 30.5945 12.2271 30.2418 12.1987 29.889C12.1645 29.4907 12.0735 29.0924 11.9824 28.7055L11.9881 28.6941Z" fill="#D9D9D9"/>
</svg>
