<svg width="96" height="96" viewBox="0 0 96 96" fill="none" xmlns="http://www.w3.org/2000/svg">
<path d="M2.79132 36.3909C3.76712 36.3909 4.7429 36.3909 5.73612 36.2866C6.93844 36.1474 8.14078 35.9213 9.32568 35.7126C11.6955 35.1735 13.2811 33.1213 13.7865 30.8256C14.0827 29.3473 14.3615 27.8517 14.5009 26.356C14.6229 24.9473 14.6403 23.5212 14.6228 22.1124C14.588 20.182 13.2811 18.5124 11.2076 18.6863C10.0924 18.808 8.97717 18.9298 7.8794 19.1907C6.93845 19.4168 6.01493 19.7298 5.0914 20.0602C3.01784 20.8255 1.6587 23.1038 1.13595 25.1386C0.874574 26.269 0.6132 27.4169 0.43895 28.5647C0.2647 29.7299 0.107872 30.9126 0.0207468 32.0952C-0.136078 33.9213 0.578332 36.3039 2.77388 36.3735L2.79132 36.3909Z" fill="#985900"/>
<path d="M35.1295 20.3906C34.8333 17.921 32.7597 16.408 30.3725 16.2862C28.8913 16.2514 27.4102 16.2862 25.9465 16.408C24.6396 16.5471 23.3328 16.7558 22.0433 17.0167C19.4644 17.5732 17.3909 19.695 16.903 22.2863C16.6765 23.5733 16.4848 24.8602 16.3628 26.1646C16.2408 27.4864 16.206 28.8081 16.1885 30.1473C16.1363 32.756 18.0704 34.9473 20.6842 35.1386C22.0433 35.2082 23.4025 35.243 24.7442 35.2082C26.3299 35.156 27.8981 34.9647 29.4664 34.756C32.115 34.356 34.3453 32.3386 34.8158 29.6777C35.0946 28.1125 35.3212 26.5298 35.3734 24.9298C35.4083 23.4168 35.2863 21.8863 35.1121 20.3906H35.1295Z" fill="#985900"/>
<path d="M32.2375 0.0429688C30.9306 0.129926 29.6063 0.251661 28.3169 0.460359C27.1494 0.634275 25.9994 0.912537 24.8667 1.20819C22.828 1.72994 20.6325 3.17344 19.9006 5.22565C19.5695 6.13001 19.2908 7.06915 19.0817 8.00829C18.8551 8.98222 18.6983 9.99092 18.5763 10.9822C18.2801 13.2257 20.2665 14.6171 22.3575 14.5127C23.6296 14.4779 24.9016 14.3736 26.1736 14.2692C27.6547 14.1127 29.1184 13.8866 30.5996 13.6605C32.8474 13.2953 35.1823 11.7127 35.7399 9.39962C36.0361 8.1996 36.2975 6.99958 36.4021 5.78218C36.4892 4.7039 36.4369 3.62562 36.3324 2.54734C36.1407 0.5821 33.9103 -0.00921436 32.2549 0.0777433L32.2375 0.0429688Z" fill="#985900"/>
<path d="M88.1047 19.1912C87.0069 18.9477 85.8917 18.826 84.7765 18.6868C82.7204 18.4955 81.396 20.1651 81.3612 22.113C81.3438 23.5217 81.3612 24.9478 81.4832 26.3565C81.6226 27.8696 81.9188 29.3479 82.1976 30.8262C82.7029 33.1218 84.2886 35.174 86.6584 35.7132C87.8607 35.9219 89.0456 36.148 90.2479 36.2871C91.2237 36.3741 92.1995 36.3914 93.1927 36.3914C95.3883 36.3219 96.1027 33.9392 95.9459 32.1131C95.8588 30.9305 95.7019 29.7479 95.5277 28.5826C95.3534 27.4348 95.0921 26.287 94.8307 25.1565C94.3079 23.1217 92.9488 20.8434 90.8752 20.0782C89.9517 19.7477 89.0282 19.4347 88.0872 19.2086L88.1047 19.1912Z" fill="#985900"/>
<path d="M61.1826 29.6777C61.653 32.3386 63.8834 34.356 66.532 34.756C68.1003 34.9647 69.6685 35.156 71.2542 35.2082C72.6133 35.243 73.9725 35.2082 75.3142 35.1386C77.9279 34.9473 79.8621 32.756 79.8098 30.1473C79.8098 28.8255 79.7576 27.4864 79.6356 26.1646C79.531 24.8602 79.3219 23.5733 79.0954 22.2863C78.6075 19.695 76.5339 17.5558 73.955 17.0167C72.6656 16.7558 71.3587 16.5471 70.0519 16.408C68.5707 16.2862 67.0896 16.2514 65.6259 16.2862C63.2387 16.408 61.1651 17.921 60.8689 20.3906C60.6946 21.9037 60.5727 23.4168 60.6075 24.9298C60.6598 26.5298 60.8863 28.1125 61.1651 29.6777H61.1826Z" fill="#985900"/>
<path d="M60.2746 9.36483C60.8322 11.6779 63.1672 13.2605 65.415 13.6258C66.8787 13.8518 68.3598 14.0953 69.8409 14.2345C71.113 14.3388 72.385 14.4432 73.657 14.4779C75.748 14.5823 77.717 13.191 77.4382 10.9475C77.2988 9.95614 77.1594 8.96483 76.9329 7.97351C76.7238 7.03437 76.4276 6.09522 76.1139 5.19086C75.3821 3.13866 73.1691 1.69517 71.1478 1.17342C70.0152 0.877766 68.8652 0.599492 67.6977 0.425577C66.4082 0.216879 65.0839 0.0951442 63.7771 0.00818654C62.1217 -0.0787712 59.8913 0.512543 59.6996 2.47779C59.5951 3.55606 59.5428 4.63433 59.6299 5.71261C59.7345 6.93002 60.0133 8.14742 60.2921 9.33005L60.2746 9.36483Z" fill="#985900"/>
<path d="M56.7395 39.5913C55.7812 38.5652 54.4917 37.8695 52.906 37.713C51.3901 37.5739 49.8915 37.4695 48.3581 37.4521C48.2362 37.4521 48.1316 37.4521 48.0096 37.4521C47.8877 37.4521 47.7831 37.4521 47.6611 37.4521C46.1452 37.4521 44.6292 37.5739 43.1132 37.713C41.5275 37.8869 40.2207 38.5826 39.2797 39.5913C38.3213 40.6174 37.7115 41.9739 37.5024 43.487C37.3978 44.9827 37.3281 46.4957 37.3281 47.9914C37.3281 49.4871 37.3978 51.0002 37.5024 52.4958C37.7115 54.0089 38.3213 55.3654 39.2797 56.3915C40.2381 57.4176 41.5275 58.1133 43.1132 58.2698C44.6292 58.4089 46.1277 58.5133 47.6611 58.5307C47.7831 58.5307 47.8877 58.5307 48.0096 58.5307C48.1316 58.5307 48.2362 58.5307 48.3581 58.5307C49.8741 58.5307 51.3901 58.4089 52.906 58.2698C54.4917 58.0959 55.7986 57.4003 56.7395 56.3915C57.6979 55.3654 58.3078 54.0089 58.5169 52.4958C58.6214 51.0002 58.6911 49.4871 58.6911 47.9914C58.6911 46.4957 58.6214 44.9827 58.5169 43.487C58.3078 41.9739 57.6979 40.6174 56.7395 39.5913Z" fill="#246645"/>
<path d="M93.2083 59.626C92.2325 59.626 91.2568 59.626 90.2635 59.7303C89.0612 59.8695 87.8589 60.0956 86.674 60.3043C84.3042 60.8434 82.7185 62.8956 82.2132 65.1913C81.917 66.6696 81.6382 68.1652 81.4988 69.6609C81.3768 71.0696 81.3594 72.4957 81.3768 73.9044C81.4117 75.8349 82.7185 77.5045 84.7921 77.3306C85.9073 77.2088 87.0225 77.0871 88.1203 76.8262C89.0612 76.6001 89.9847 76.2871 90.9083 75.9566C92.9818 75.1914 94.341 72.9131 94.8637 70.8783C95.1251 69.7478 95.3865 68.6 95.5607 67.4522C95.735 66.2869 95.8918 65.1043 95.9789 63.9217C96.1357 62.0956 95.4213 59.7129 93.2258 59.6434L93.2083 59.626Z" fill="#985900"/>
<path d="M60.8866 75.6086C61.1828 78.0782 63.2564 79.5913 65.6436 79.713C67.1248 79.7478 68.6059 79.713 70.0696 79.5913C71.3764 79.4521 72.6833 79.2434 73.9728 78.9826C76.5517 78.426 78.6252 76.3043 79.1131 73.7129C79.3397 72.4259 79.5313 71.139 79.6533 69.8346C79.7753 68.5128 79.8101 67.1911 79.8276 65.8519C79.8798 63.2432 77.9456 61.0519 75.3319 60.8606C73.9728 60.791 72.6136 60.7562 71.2719 60.791C69.6862 60.8432 68.118 61.0345 66.5497 61.2432C63.9011 61.6432 61.6707 63.6606 61.2003 66.3215C60.9215 67.8867 60.695 69.4694 60.6427 71.0694C60.6078 72.5825 60.7298 74.1129 60.9041 75.6086H60.8866Z" fill="#985900"/>
<path d="M73.6588 81.5042C72.3868 81.5389 71.1148 81.6433 69.8427 81.7476C68.3616 81.9041 66.8979 82.1302 65.4168 82.3563C63.169 82.7215 60.834 84.3042 60.2764 86.6172C59.9802 87.8173 59.7188 89.0173 59.6143 90.2347C59.5272 91.313 59.5795 92.3912 59.684 93.4695C59.8757 95.4348 62.1061 96.0261 63.7614 95.9391C65.0683 95.8522 66.3926 95.7304 67.682 95.5217C68.8495 95.3478 69.9996 95.0695 71.1322 94.7739C73.1709 94.2521 75.3665 92.8086 76.0983 90.7564C76.4294 89.8521 76.7082 88.9129 76.9173 87.9738C77.1438 86.9999 77.3006 85.9912 77.4226 84.9998C77.7188 82.7563 75.7324 81.365 73.6414 81.4694L73.6588 81.5042Z" fill="#985900"/>
<path d="M7.89713 76.8096C8.9949 77.0531 10.1101 77.1748 11.2253 77.3139C13.2814 77.5053 14.6058 75.8357 14.6406 73.8878C14.658 72.4791 14.6406 71.053 14.5186 69.6443C14.3792 68.1312 14.083 66.6529 13.8042 65.1747C13.2989 62.879 11.7132 60.8268 9.34341 60.2876C8.14109 60.079 6.9562 59.8529 5.75388 59.7137C4.77808 59.6268 3.80228 59.6094 2.80905 59.6094C0.61351 59.6789 -0.100922 62.0616 0.0559026 63.8877C0.143027 65.0703 0.299856 66.2529 0.474106 67.4182C0.648355 68.566 0.90973 69.7139 1.1711 70.8443C1.69385 72.8791 3.05299 75.1574 5.12656 75.9226C6.05008 76.2531 6.97361 76.5661 7.91455 76.7922L7.89713 76.8096Z" fill="#985900"/>
<path d="M16.8855 73.7129C17.3734 76.3043 19.447 78.4434 22.0259 78.9826C23.3153 79.2434 24.6222 79.4521 25.9291 79.5913C27.4102 79.713 28.8913 79.7478 30.355 79.713C32.7423 79.5913 34.8158 78.0782 35.1121 75.6086C35.2863 74.0955 35.4083 72.5825 35.3734 71.0694C35.3212 69.4694 35.0946 67.8867 34.8158 66.3215C34.3453 63.6606 32.115 61.6432 29.4664 61.2432C27.8981 61.0345 26.3299 60.8432 24.7442 60.791C23.3851 60.7562 22.0259 60.791 20.6842 60.8606C18.0704 61.0519 16.1363 63.2432 16.1885 65.8519C16.1885 67.1737 16.2408 68.5128 16.3628 69.8346C16.4673 71.139 16.6765 72.4259 16.903 73.7129H16.8855Z" fill="#985900"/>
<path d="M35.7252 86.6352C35.1676 84.3221 32.8327 82.7395 30.5848 82.3743C29.1211 82.1482 27.64 81.9047 26.1589 81.7656C24.8869 81.6612 23.6149 81.5569 22.3428 81.5221C20.2518 81.4177 18.2828 82.8091 18.5616 85.0526C18.701 86.0439 18.8404 87.0352 19.0669 88.0265C19.276 88.9657 19.5723 89.9048 19.8859 90.8092C20.6178 92.8614 22.8307 94.3049 24.852 94.8266C25.9846 95.1223 27.1347 95.4005 28.3022 95.5744C29.5916 95.7831 30.9159 95.9049 32.2228 95.9918C33.8781 96.0788 36.1085 95.4875 36.3002 93.5223C36.4048 92.444 36.457 91.3657 36.3699 90.2874C36.2654 89.07 35.9866 87.8526 35.7078 86.67L35.7252 86.6352Z" fill="#985900"/>
</svg>
