<svg width="15" height="14" viewBox="0 0 15 14" fill="none" xmlns="http://www.w3.org/2000/svg">
<path fill-rule="evenodd" clip-rule="evenodd" d="M1.90175 6.79698C1.90175 9.84121 4.10895 11.9149 6.58747 12.3441C6.87109 12.3932 7.06119 12.6629 7.01208 12.9466C6.96298 13.2302 6.69324 13.4203 6.40963 13.3712C3.49796 12.867 0.859375 10.4129 0.859375 6.79698C0.859374 5.2603 1.5585 4.05266 2.37493 3.13398C2.95977 2.47589 3.62887 1.94156 4.16699 1.53223H2.53058C2.25444 1.53223 2.03058 1.30837 2.03058 1.03223C2.03058 0.756087 2.25444 0.532227 2.53058 0.532227H5.53059C5.80673 0.532227 6.03059 0.756087 6.03059 1.03223V4.03223C6.03059 4.30837 5.80673 4.53223 5.53059 4.53223C5.25445 4.53223 5.03059 4.30837 5.03059 4.03223V2.18666L5.02908 2.1878C4.45761 2.61881 3.75912 3.14559 3.15407 3.82641C2.43955 4.63042 1.90175 5.60175 1.90175 6.79698ZM13.0094 7.20342C13.0094 4.19136 10.849 2.12981 8.40238 1.6705C8.11947 1.61739 7.93319 1.345 7.9863 1.06209C8.03941 0.779187 8.3118 0.592907 8.5947 0.646017C11.4689 1.18562 14.0517 3.62626 14.0517 7.20342C14.0517 8.74009 13.3526 9.94771 12.5362 10.8664C11.9513 11.5245 11.2822 12.0588 10.7441 12.4682H12.3806C12.6567 12.4682 12.8806 12.692 12.8806 12.9682C12.8806 13.2443 12.6567 13.4682 12.3806 13.4682H9.38058C9.10444 13.4682 8.88058 13.2443 8.88058 12.9682V9.96821C8.88058 9.69201 9.10444 9.46817 9.38058 9.46817C9.65672 9.46817 9.88058 9.69201 9.88058 9.96821V11.8137L9.88216 11.8125C10.4536 11.3815 11.152 10.8548 11.757 10.174C12.4716 9.36997 13.0094 8.39865 13.0094 7.20342Z" fill="#387F5C"/>
</svg>
