<svg width="22" height="22" viewBox="0 0 22 22" fill="none" xmlns="http://www.w3.org/2000/svg">
<path d="M9.02389 6.25318C9.51322 6.29301 10.0082 6.32715 10.4976 6.32715C10.5374 6.32715 10.5772 6.32715 10.6171 6.32715C10.6569 6.32715 10.6967 6.32715 10.7365 6.32715C11.2316 6.32715 11.7209 6.2987 12.2102 6.25318C13.1661 6.15645 13.9286 5.42815 13.9912 4.46087C14.0082 4.11378 14.0196 3.7667 14.0196 3.41962C14.0196 3.07254 14.0196 3.19771 14.0196 3.08391C14.0082 2.6401 13.9741 2.1906 13.9286 1.74679C13.8318 1.2916 13.6327 0.904691 13.3311 0.614507C13.0296 0.324323 12.637 0.136557 12.159 0.0853483C11.6981 0.0398292 11.2429 0.00568988 10.7821 0C10.7252 0 10.6683 0 10.6114 0C10.5545 0 10.4976 0 10.4407 0C9.97979 0 9.5246 0.0398292 9.06372 0.0853483C8.58577 0.136557 8.19317 0.324323 7.89161 0.614507C7.59573 0.904691 7.3909 1.2916 7.29417 1.74679C7.24865 2.1906 7.2145 2.63441 7.20312 3.08391C7.20312 3.19771 7.20312 3.31151 7.20312 3.41962C7.20312 3.7667 7.2145 4.11378 7.23157 4.46087C7.29416 5.42815 8.0623 6.15645 9.01251 6.25318H9.02389Z" fill="#387F5C"/>
<path d="M13.4713 7.90298C13.1584 7.56728 12.7373 7.33968 12.2196 7.28847C11.7246 7.24295 11.2352 7.20881 10.7345 7.20312C10.6947 7.20312 10.6605 7.20312 10.6207 7.20312C10.5809 7.20312 10.5467 7.20312 10.5069 7.20312C10.0119 7.20312 9.51687 7.24295 9.02185 7.28847C8.50407 7.34537 8.07733 7.57297 7.77008 7.90298C7.45713 8.23869 7.25799 8.68249 7.18971 9.17751C7.15557 9.66684 7.13281 10.1619 7.13281 10.6512C7.13281 11.1405 7.15557 11.6355 7.18971 12.1249C7.25799 12.6199 7.45713 13.0637 7.77008 13.3994C8.08302 13.7351 8.50407 13.9627 9.02185 14.0139C9.51687 14.0594 10.0062 14.0936 10.5069 14.0993C10.5467 14.0993 10.5809 14.0993 10.6207 14.0993C10.6605 14.0993 10.6947 14.0993 10.7345 14.0993C11.2295 14.0993 11.7246 14.0594 12.2196 14.0139C12.7373 13.957 13.1641 13.7294 13.4713 13.3994C13.7843 13.0637 13.9834 12.6199 14.0517 12.1249C14.0858 11.6355 14.1086 11.1405 14.1086 10.6512C14.1086 10.1619 14.0858 9.66684 14.0517 9.17751C13.9834 8.68249 13.7843 8.23869 13.4713 7.90298Z" fill="#387F5C"/>
<path d="M21.2452 10.6571C21.2452 10.1963 21.2225 9.73538 21.1883 9.2745C21.1485 8.825 20.9721 8.39825 20.699 8.06824C20.4202 7.73823 20.039 7.50494 19.5781 7.43666C19.1343 7.37976 18.6848 7.33424 18.2409 7.32287C17.7289 7.3058 17.2111 7.33993 16.699 7.37976C15.8114 7.4708 15.1229 8.13083 14.9977 9.01276C14.9579 9.28588 14.9238 9.56468 14.901 9.84349C14.8782 10.1166 14.8612 10.3897 14.8555 10.6628C14.8555 10.9359 14.8725 11.2091 14.901 11.4822C14.9294 11.761 14.9636 12.0341 14.9977 12.3129C15.1286 13.1948 15.8171 13.8549 16.699 13.9459C17.2111 13.9857 17.7232 14.0142 18.2409 14.0028C18.6905 13.9914 19.1343 13.9402 19.5781 13.889C20.039 13.8207 20.4259 13.5817 20.699 13.2574C20.9778 12.9274 21.1485 12.5063 21.1883 12.0512C21.2225 11.5903 21.2395 11.1294 21.2452 10.6685V10.6571Z" fill="#387F5C"/>
<path d="M12.2145 15.0554C11.7251 15.0156 11.2301 14.9814 10.7408 14.9814C10.701 14.9814 10.6611 14.9814 10.6213 14.9814C10.5815 14.9814 10.5416 14.9814 10.5018 14.9814C10.0068 14.9814 9.51747 15.0099 9.02814 15.0554C8.07224 15.1521 7.30979 15.8804 7.2472 16.8477C7.23013 17.1948 7.21875 17.5419 7.21875 17.889C7.21875 18.2361 7.21875 18.1109 7.21875 18.2247C7.23013 18.6685 7.26427 19.118 7.30979 19.5618C7.40651 20.017 7.60566 20.4039 7.90722 20.6941C8.20879 20.9843 8.60139 21.172 9.07934 21.2233C9.54022 21.2688 9.99541 21.3029 10.4563 21.3086C10.5132 21.3086 10.5701 21.3086 10.627 21.3086C10.6839 21.3086 10.7408 21.3086 10.7977 21.3086C11.2586 21.3086 11.7138 21.2688 12.1746 21.2233C12.6526 21.172 13.0452 20.9843 13.3468 20.6941C13.6426 20.4039 13.8475 20.017 13.9442 19.5618C13.9897 19.118 14.0239 18.6742 14.0352 18.2247C14.0352 18.1109 14.0352 17.9971 14.0352 17.889C14.0352 17.5419 14.0239 17.1948 14.0068 16.8477C13.9442 15.8804 13.1761 15.1521 12.2258 15.0554H12.2145Z" fill="#387F5C"/>
<path d="M1.66714 13.8773C2.11095 13.9341 2.56045 13.9797 3.00426 13.991C3.51635 14.0081 4.03413 13.974 4.54622 13.9341C5.43384 13.8431 6.12232 13.1831 6.2475 12.3011C6.28732 12.028 6.32146 11.7492 6.34422 11.4704C6.36698 11.1973 6.38405 10.9242 6.38974 10.6511C6.38974 10.378 6.37267 10.1049 6.34422 9.83174C6.31577 9.55293 6.28164 9.27982 6.2475 9.00102C6.11663 8.11908 5.42815 7.45906 4.54622 7.36802C4.03413 7.32819 3.52204 7.29974 3.00426 7.31112C2.55476 7.3225 2.11095 7.37371 1.66714 7.42492C1.20626 7.4932 0.819342 7.73217 0.546228 8.0565C0.267423 8.38651 0.096728 8.80756 0.0568988 9.26275C0.0227595 9.72363 0.00568988 10.1845 0 10.6454C0 11.1063 0.0227595 11.5672 0.0568988 12.028C0.096728 12.4775 0.273113 12.9043 0.546228 13.2343C0.825032 13.5643 1.20626 13.7976 1.66714 13.8659V13.8773Z" fill="#387F5C"/>
</svg>
