<svg xmlns="http://www.w3.org/2000/svg" width="110" height="71" viewBox="0 0 110 71" fill="none">
  <path d="M61.8419 2.99513C61.9921 4.73812 58.7266 6.14055 54.5493 6.14055C50.372 6.14055 47.106 4.73812 47.2562 2.99513C47.3965 1.34229 50.6625 0 54.5493 0C58.4361 0 61.6916 1.34229 61.8419 2.99513Z" fill="#387F5C"/>
  <path d="M42.4598 3.64723C44.303 5.11976 42.7806 7.19333 38.9639 8.29522C35.037 9.42717 30.4385 9.09658 28.7756 7.52388C27.1928 6.03132 29.0064 3.95778 32.743 2.91599C36.3894 1.90425 40.6967 2.2348 42.4598 3.64723Z" fill="#387F5C"/>
  <path d="M24.5976 9.45605C28.0237 10.2174 28.6448 12.5013 25.8699 14.6049C22.9448 16.8187 17.5853 17.9807 14.0391 17.1392C10.593 16.3278 10.3628 13.8836 13.4081 11.75C16.3032 9.71648 21.2721 8.71478 24.6079 9.45605H24.5976Z" fill="#387F5C"/>
  <path d="M11.3942 20.2835C16.1325 19.7827 19.2677 21.6358 18.3762 24.4607C17.4245 27.4758 12.4357 30.471 7.27662 31.0921C2.11758 31.7131 -0.907516 29.6195 0.484927 26.4741C1.78721 23.5291 6.65589 20.7844 11.3942 20.2835Z" fill="#387F5C"/>
  <path d="M7.45761 35.0087C12.6267 32.6647 18.2263 33.1555 20.0696 36.0605C22.033 39.1658 19.2483 43.8639 13.7386 46.6086C8.00859 49.4636 1.97792 48.9627 0.365091 45.4166C-1.12753 42.1109 2.09821 37.4329 7.45761 35.0087Z" fill="#387F5C"/>
  <path d="M17.8555 50.1242C21.6221 45.7867 28.3942 43.9636 33.0824 45.907C37.981 47.9304 39.183 53.2896 35.6568 58.0578C31.8301 63.2067 24.4771 65.5306 19.3181 63.0363C14.3994 60.6523 13.7884 54.7922 17.8555 50.1242Z" fill="#387F5C"/>
  <path d="M42.9789 59.5118C43.2895 54.0725 48.4686 49.8352 54.5593 49.8452C60.65 49.8452 65.8291 54.0725 66.1397 59.5118C66.4702 65.4721 61.2811 70.5307 54.5593 70.5307C47.8375 70.5307 42.6483 65.4821 42.9789 59.5118Z" fill="#387F5C"/>
  <path d="M73.4527 58.0578C69.9265 53.2896 71.1189 47.9304 76.0275 45.907C80.7258 43.9636 87.4874 45.7867 91.254 50.1242C95.3111 54.7922 94.7 60.6623 89.7914 63.0363C84.6324 65.5306 77.2794 63.2067 73.4527 58.0578Z" fill="#387F5C"/>
  <path d="M95.3712 46.6087C89.8615 43.8639 87.0763 39.1558 89.0397 36.0605C90.883 33.1555 96.4726 32.6647 101.652 35.0087C107.021 37.4329 110.237 42.1109 108.744 45.4166C107.141 48.9627 101.111 49.4736 95.3712 46.6087Z" fill="#387F5C"/>
  <path d="M101.832 31.1038C96.6734 30.4827 91.6846 27.4876 90.7329 24.4724C89.8414 21.6476 92.9771 19.7944 97.7154 20.2953C102.454 20.7861 107.322 23.5408 108.625 26.4859C110.017 29.6313 106.992 31.7249 101.832 31.1038Z" fill="#387F5C"/>
  <path d="M95.0715 17.1392C91.5153 17.9807 86.1658 16.8187 83.2407 14.6049C80.4558 12.5013 81.0769 10.2174 84.513 9.45605C87.8488 8.71478 92.8077 9.71648 95.7128 11.75C98.7581 13.8836 98.5278 16.3278 95.0818 17.1392H95.0715Z" fill="#387F5C"/>
  <path d="M80.3337 7.51298C78.6708 9.07567 74.0728 9.41627 70.1459 8.28433C66.3292 7.18244 64.8063 5.10886 66.6496 3.63633C68.4127 2.22391 72.7204 1.89336 76.3668 2.9051C80.1034 3.94689 81.9165 6.02042 80.3337 7.51298Z" fill="#387F5C"/>
  <path d="M62.5241 10.7284C62.7044 12.8921 59.1382 14.6551 54.5502 14.6551C49.9621 14.6551 46.3954 12.8921 46.5757 10.7284C46.746 8.68488 50.3127 7.03204 54.5502 7.03204C58.7876 7.03204 62.3538 8.68488 62.5241 10.7284Z" fill="#387F5C"/>
  <path d="M44.5623 11.1581C47.5876 12.6206 47.3671 15.2351 43.941 17.0182C40.3648 18.8814 34.9255 19.1118 31.9302 17.509C29.0552 15.9764 29.7064 13.3018 33.2426 11.5889C36.6386 9.93603 41.6572 9.75573 44.5623 11.1581Z" fill="#387F5C"/>
  <path d="M30.797 18.7025C35.5454 18.422 39.0919 20.4055 38.6912 23.1602C38.2605 26.1052 33.7021 28.7999 28.523 29.1405C23.3439 29.4811 19.8683 27.2773 20.7398 24.2621C21.5513 21.4373 26.0487 18.963 30.797 18.6925V18.7025Z" fill="#387F5C"/>
  <path d="M29.1958 30.5532C33.283 28.0089 39.2534 27.7384 42.6594 29.9221C46.2457 32.2161 45.9248 36.3532 41.7975 39.2081C37.4399 42.2233 30.9088 42.5839 27.3626 39.9494C24.0067 37.4551 24.8883 33.2278 29.1958 30.5532Z" fill="#387F5C"/>
  <path d="M44.2822 39.8785C44.5427 35.9918 49.1408 32.9265 54.5503 32.9265C59.9597 32.9265 64.5578 35.9918 64.8183 39.8785C65.0988 44.0757 60.5007 47.5717 54.5503 47.5717C48.5998 47.5717 44.0018 44.0757 44.2822 39.8785Z" fill="#387F5C"/>
  <path d="M67.3024 39.2081C63.1751 36.3532 62.8542 32.2161 66.4405 29.9221C69.8465 27.7384 75.8169 28.0089 79.9041 30.5532C84.2116 33.2278 85.0932 37.4651 81.7374 39.9494C78.1911 42.5739 71.66 42.2233 67.3024 39.2081Z" fill="#387F5C"/>
  <path d="M80.5764 29.1405C75.3973 28.7999 70.8389 26.1052 70.4082 23.1602C70.0075 20.4055 73.544 18.422 78.3024 18.7025C83.0507 18.973 87.5486 21.4472 88.3601 24.2721C89.2316 27.2873 85.7555 29.491 80.5764 29.1504V29.1405Z" fill="#387F5C"/>
  <path d="M77.1803 17.5095C74.185 19.1123 68.7453 18.8819 65.169 17.0187C61.743 15.2357 61.523 12.6212 64.5483 11.1587C67.4534 9.75627 72.4619 9.92655 75.8679 11.5894C79.4041 13.3124 80.0553 15.9769 77.1803 17.5095Z" fill="#387F5C"/>
</svg>