<svg xmlns="http://www.w3.org/2000/svg" width="221" height="73" viewBox="0 0 221 73" fill="none">
  <path d="M191.89 57.4834C174.609 57.4834 163.261 48.616 163.261 35.0139V34.9337C163.261 21.2914 174.609 12.424 191.89 12.424C209.211 12.424 220.518 21.2914 220.518 34.9337V35.0139C220.518 48.616 209.211 57.4834 191.89 57.4834ZM191.89 51.2241C203.518 51.2241 212.138 45.2857 212.138 35.0139V34.9337C212.138 24.6217 203.518 18.6834 191.89 18.6834C180.302 18.6834 171.641 24.6217 171.641 34.9337V35.0139C171.641 45.2857 180.302 51.2241 191.89 51.2241Z" fill="#387F5C"/>
  <path d="M152.793 56.3495C141.327 56.3495 137.078 52.9404 137.078 41.4699V19.9327V13.5557V0H144.935V13.5557H160.691V19.9327H144.935V40.3068C144.935 48.2078 147.1 49.9725 154.637 49.9725H160.25V56.3495H152.793Z" fill="#387F5C"/>
  <path d="M79.8713 56.349V13.5569H87.7308V20.3748C90.7783 15.883 96.9134 12.4741 106.818 12.4741C120.572 12.4741 128.913 19.2518 128.913 32.5266V56.349H121.053V34.1709C121.053 23.904 114.958 18.8508 104.372 18.8508C93.8659 18.8508 87.7308 24.0644 87.7308 34.3313V56.349H79.8713Z" fill="#387F5C"/>
  <path d="M62.3819 56.3495V13.5586H70.2446V56.3495H62.3819ZM62.3819 7.62331V0H70.2446V7.62331H62.3819Z" fill="#387F5C"/>
  <path d="M28.7313 57.4717C18.2288 57.4717 11.3741 53.8221 7.96682 49.2903V72.1501H0.110001V13.5569H7.96682V20.6153C11.3741 16.0835 18.2288 12.4741 28.7313 12.4741C43.2423 12.4741 54.9474 20.6554 54.9474 34.9328V35.013C54.9474 49.2903 43.2423 57.4717 28.7313 57.4717ZM27.0477 51.2153C36.7484 51.2153 46.5695 46.5231 46.5695 35.013V34.9328C46.5695 23.4227 36.7484 18.7304 27.0477 18.7304C17.4271 18.7304 7.52588 23.4628 7.52588 34.9328V35.013C7.52588 46.4429 17.4271 51.2153 27.0477 51.2153Z" fill="#387F5C"/>
</svg>